<?xml version="1.0" encoding="utf-8"?>
<!-- Generator: Adobe Illustrator 24.0.3, SVG Export Plug-In . SVG Version: 6.00 Build 0)  -->
<svg version="1.1" id="圖層_1" xmlns="http://www.w3.org/2000/svg" xmlns:xlink="http://www.w3.org/1999/xlink" x="0px" y="0px"
	 viewBox="0 0 283.5 216" style="enable-background:new 0 0 283.5 216;" xml:space="preserve">
<style type="text/css">
	.st0{fill:#487FBB;stroke:#C79646;stroke-width:2.3267;stroke-miterlimit:10;}
	.st1{fill:#4894BD;stroke:#C79646;stroke-width:2.3267;stroke-miterlimit:10;}
	.st2{fill:none;stroke:#C79646;stroke-width:2.3267;stroke-miterlimit:10;}
	.st3{fill:#4C4B4C;stroke:#C79646;stroke-width:2.3267;stroke-miterlimit:10;}
	.st4{fill:#FFFFFF;stroke:#C79646;stroke-width:2.3267;stroke-miterlimit:10;}
	.st5{fill:#FFFFFF;stroke:#C79646;stroke-width:2.3267;stroke-linecap:round;stroke-linejoin:round;stroke-miterlimit:10;}
</style>
<g>
	<g>
		<path class="st0" d="M128,186.4c-27.1-0.7-54.1-0.5-81.2,0.7c-4,0.2-8.3,0.3-11.9-1.5c-0.7-0.4-1.5-0.9-1.8-1.6
			c-0.2-0.5-0.2-1.1-0.2-1.7c1.2-28.9,3-57.7,5.5-86.4c0.8-9,1.8-18.6,7.5-25.6c4-4.9,9.9-8.1,13.5-13.2c1.5-2.1,2.6-4.5,4.7-6
			c2.1-1.5,5.5-1.6,6.7,0.6c3.3,0.1,6.6,0.2,9.8,0.3c2.2,0.1,4.8,0.4,5.6,2.4c-0.1-1.4,0.9-2.8,2.3-3.2c1.4-0.3,2.9,0.5,3.5,1.8
			c3.9-0.2,7.8-0.4,11.6-0.7c0.7,0,1.4-0.1,2-0.5c0.5-0.3,0.8-0.8,1.2-1.2c1.8-1.7,5.3-0.4,5.6,2.1c12.9,6.7,23.4,18.7,26.3,32.9"/>
		<path class="st1" d="M167.2,56.1c-2.2,0.7-3.7,2.7-5.3,4.3c-2.6,2.6-5.7,4.6-8.5,6.8c-11.9,9.6-18.3,24.7-20.9,39.8
			c-2.7,15.1-2.1,30.5-2.6,45.9c-0.6,16.4-2.4,32.8-1.6,49.1c0.1,1.2,0.2,2.5,1,3.4c1,1.1,2.6,1.2,4.1,1.2c25,0.6,50.1,1.3,75.1,1.9
			c6.7,0.2,13.4,0.3,20.1,0.5c7.3,0.2,15,0.3,21.6-2.9c0.7-0.3,1.4-0.8,1.8-1.4c0.5-0.8,0.3-1.9,0.2-2.8
			c-3.9-24.3-1.8-49.2-3.9-73.7s-9.6-50.2-28.2-66.2c-2.8-2.4-6.1-4.6-9.7-4c-1.5,0.2-2.9,1-4.5,1.1c-1.4,0-2.8-0.6-4.1-0.9
			c-3.6-1-7.6-0.5-10.8,1.3c-0.6-1.6-3.3-1.7-4.1-0.2c-0.9-2.4-4.2-2.9-6.7-2.2c-2.5,0.7-5,2.1-7.6,1.2
			C170.5,57.6,170.2,55.1,167.2,56.1z"/>
		<path class="st2" d="M227.2,141.6c-1.7-0.6-3.7,0.4-4.7,2c-1,1.6-1.2,3.5-1.1,5.3c0,0.6,0.1,1.2,0.2,1.8c0.5,1.5,1.9,2.5,3.4,2.9
			c3.6,0.9,7.5-2.2,7.6-5.9c0-3.7-3.9-6.8-7.5-5.9"/>
		<path class="st2" d="M224.7,148.2c1.6-0.4,3.1-0.8,4.7-1.1C229.2,148.9,224.4,146.5,224.7,148.2z"/>
		<path class="st3" d="M235.3,207.9c4.8-5.6,9.6-11.1,14.5-16.6c0.4,3.8,0.4,8.1,0.8,11.9c0.1,0.5,0.1,1.1-0.1,1.6
			c-0.2,0.4-0.6,0.6-0.9,0.8c-3.4,2.1-7.2,3.5-11.1,4C237,209.8,235.6,209.3,235.3,207.9z"/>
		<path class="st3" d="M127.8,204.7c0.1,0.6,0.2,1.3,0.7,1.8c0.4,0.4,1.1,0.5,1.7,0.6c4.1,0.6,8.2,0.5,12.4,0.4c0.6,0,1.3,0,1.8-0.4
			s0.7-1.3,0.1-1.6c-4.1-2.6-7.3-6.2-10.4-9.9c-2.2-2.6-4.6-7.4-6.6-2.6C126,196.4,127.8,201.2,127.8,204.7z"/>
		<path class="st4" d="M129.1,185.5c13.9,2.9,28.7,1.7,41.9-3.6c1.2-0.5,2.5-1,3.8-0.9c2.6,0.2,4.2,2.7,6.1,4.5
			c8.4,8.2,23.6,4.3,32.8,11.6c3.6,2.8,6.5,7.4,11.1,7.7c1.1,0.1,2.4-0.2,3.2-1c0.7-0.6,1-1.5,1.3-2.4c1.5-4.1,3.1-8.1,4.6-12.2
			c1.2-3.1,2.4-6.4,2.4-9.7c0-4.3-2.1-8.6-5.5-11.3c-0.3-0.2-0.6-0.4-0.9-0.4c-0.6,0-1.1,0.6-1.3,1.1c-1.6,3.2-1.9,7-2.9,10.4
			c-1,3.5-3.1,7-6.5,8.1c-4.4,1.4-8.8-1.9-12.4-4.7c-11.1-8.6-23.7-15.4-36.9-20c-4.7-1.6-9.9-3-14.7-1.5c-2.1,0.7-5.4,1.5-5.9-0.7
			c-0.1-0.4-0.1-0.7,0-1.1c0.9-12.2,8.4-23.7,19-29.6c3.8-2.1,8.6-3.4,12.1-0.9c1.1,0.8,2,2,3.1,2.9c4.2,3.5,10.4,2.1,15.7,0.6
			c-0.6-4.7-4.2-8.8-8.7-10c0-3.7-2.8-7.3-6.4-8.3s-7.8,0.6-9.7,3.8c-1.9-3.5-4.8-6.5-8.3-8.5c3.5-3.9,4.7-10.3,1.6-14.5
			c-3.1-4.1-9.4-4.8-13.9-2.4c-4.5,2.4-7.3,7.2-8.5,12.2c0,0-11.6-5.1-12-1.5c-0.4,3.6-5.1,14.4-4.6,29.2
			C129.4,147.6,129.1,185.5,129.1,185.5z"/>
		<path class="st4" d="M135.1,85.4c-1.1,0.5-1.6,1.8-1.9,2.9c-3,10-5.7,20.1-8.1,30.3c-0.7,3-1.4,6.2-3.5,8.4
			c-0.8,0.8-1.7,1.5-2.5,2.3c-2.6,2.8-3.1,6.9-4.3,10.6c-2.8,8.2-9.7,14.5-12.1,22.8c-2-1.9-4.5-3.3-7.2-3.7
			c0.8-1.9,1.6-4.2,0.2-5.8c-1.4-1.7-4.2-1-5.9,0.4c-1.7,1.4-3,3.3-4.9,4.3c-1.4,0.8-3.2,0.9-4.6,1.7c-3,1.6-4.1,5.3-4.1,8.7
			c0,1.1,0.2,2.2,0.9,3c1.4,1.4,3.8,0.5,5.3-0.8c1.5-1.3,2.8-3.1,4.7-3.4c2.4-0.5,4.6,1.4,5.9,3.4s2,4.4,3.5,6.3
			c3.4,4.1,10.7,3.9,13.9-0.3c1.1-1.4,1.7-3.1,2.5-4.8c3.4-6.8,10.1-11.2,16.6-15.3c0.9-0.6-0.9-16.5-0.9-18.5
			c0.1-6.5,0.5-12.9,1.3-19.4s2.1-12.8,3.6-19.1C134.1,97.9,139.2,83.5,135.1,85.4z"/>
		<path class="st2" d="M189.3,75.1c-0.7,0.6-1.7-0.4-2.1-1.3c-1.6-4.3-1.7-9.2-0.3-13.5c0.9,1.4,4.6,2.7,4.7,4.4
			c0.1,7-2.1,14.1-6.3,19.7"/>
		<path class="st2" d="M216.2,70.3c0.5,1.2,1.1,2.3,1.9,3.3c0.6,0.7,1.2,1.2,1.9,1.8c2.2,1.9,4.4,3.8,6.6,5.7
			c-0.1-1.6-0.9-3-1.6-4.3c-2.1-3.5-5.8-12.9-9.3-14.8C210.2,58.9,215.3,68.1,216.2,70.3z"/>
		<path class="st2" d="M159.2,72.3c-0.8,0.8-1.5,1.6-2.2,2.5c-1.8,2.5-2.6,5.6-3.4,8.6c4.9-1.8,7.6-6.9,10-11.6
			c1.5-2.9,3.2-5.8,4.8-8.8C165,65.6,162.1,69.3,159.2,72.3z"/>
		<path class="st2" d="M87.1,59.5c0.5,2.6,1.1,5.3,1.6,7.9c2.3-3.5,3.3-7.8,2.7-11.9c0.2,6.8-2.7,13.2-5.6,19.4"/>
		<path class="st2" d="M118.2,67.8c0.4,0.5,0.8,1,1.4,1.1c1.3,0.3,2.4-1.2,2.3-2.5s-1.1-2.4-1.9-3.4c-1.9-2.1-5.1-7.4-8.2-6.8
			C113,60,115.7,64.6,118.2,67.8z"/>
		<path class="st2" d="M56.1,71.8c-0.2,0.4-0.5,0.9-0.7,1.4c1.2-4.7,4.8-8.2,8.4-11.5c2.4-2.2,4.8-4.5,7.2-6.7
			C65.8,59.2,59.2,65.7,56.1,71.8z"/>
		<path class="st3" d="M50,186.2c-3.3,1.9-7.3,1.5-11.1,1.1c-1.7-0.2-3.5-0.4-4.8-1.5c-2.9-2.5-3.5-12.7,1.4-12.8
			C39.3,172.8,48.8,186.8,50,186.2z"/>
		<path class="st2" d="M252.2,204.6c6.3-1.1,12.7,0.9,17.3-3.5c4-3.9,5.7-9.7,5.7-15.3c-0.1-5.6-1.7-11.1-3.6-16.3
			c-5.3-15-12.4-29.9-12.4-45.7c0-16.3,7.7-32,7.2-48.3c-0.2-6.4-2.2-13.5-7.9-16.4c-5.2-2.6-11.4-0.8-17.2-0.4
			c-8.3,0.5-17.4-2.3-24.7,1.7c2.1,1,4.5,2,6.7,2.9c8.2-2.4,16.8-3.4,25.3-2.8c2.1,0.1,4.2,0.4,6,1.4c1.5,0.8,2.8,2.1,3.8,3.4
			c3.9,5.3,4.3,12.5,3.1,19c-1.1,6.5-3.7,12.6-5.3,19c-3.4,13.2-2.6,27.4,2.1,40.3c2.8,7.8,7.1,14.9,10,22.6
			c2.9,7.7,4.4,16.4,1.6,24.2c-2.9,8.1-9.1,10.4-17.7,11.4C252.1,202.8,252.3,203.6,252.2,204.6z"/>
		<path class="st2" d="M31.5,180.3c-4.8-1.4-9.7-2.7-13.9-5.3c-4.3-2.6-7.9-6.6-9-11.5s0.6-10,3.1-14.3c2.4-4.4,5.7-8.2,8.2-12.6
			c4.6-8.1,6.5-17.8,5.2-27c-1.8-13.1-9.6-24.9-10.5-38C14.3,67,15,62,18,58.5c3.1-3.7,8-5.2,12.8-6.1c10.5-2.2,21.3-2.7,32-1.5
			c0.2-0.1,1.8,1.4-3.4,2.8c-5.6,1.5-23.2,3.2-28.3,4.7c-4.9,1.4-10.2,3.4-12.4,8c-2.9,5.9,0.8,12.8,3.6,18.7
			c4.9,10.3,7.6,21.6,7.9,33c0.1,5.9-0.4,12-3,17.3c-2.3,4.9-6.2,8.8-9.2,13.2s-5.3,9.9-3.9,15.1c1,3.8,13.1,10.6,16.5,12.7
			S27.8,179.1,31.5,180.3z"/>
		<path class="st3" d="M141,126.7c1.8,1.1,4.1,1,6.2,0.9c29.9-2,60.3-4.2,88.6-14.1c1.7-0.6,3.4-1.3,4.4-2.8s0.3-4-1.4-4.2
			c-27.4,10.8-57.2,12.9-86.3,13.8c-2.8,0.1-9.2-1-11.6,0.4C138.5,122,138.5,125.2,141,126.7z"/>
		<path class="st2" d="M226.2,143.1c0.4,2.8,0.8,5.6,1.3,8.4"/>
	</g>
	<path class="st5" d="M129.2,10.3c0,0-3,10.8-12.7,10.3c0,0,9.8,4.8,7.7,16c0,0,7.1-10.3,14.4-11.8
		C138.5,24.8,128.9,21.4,129.2,10.3z"/>
	<path class="st5" d="M155.1,32.3c0,0-2.6,7.1-9,6.2c0,0,6.3,3.7,4.3,11.1c0,0,5.3-6.5,10.2-7.1C160.6,42.5,154.4,39.7,155.1,32.3z"
		/>
</g>
</svg>
