<?xml version="1.0" encoding="utf-8"?>
<!-- Generator: Adobe Illustrator 24.0.3, SVG Export Plug-In . SVG Version: 6.00 Build 0)  -->
<svg version="1.1" id="圖層_1" xmlns="http://www.w3.org/2000/svg" xmlns:xlink="http://www.w3.org/1999/xlink" x="0px" y="0px"
	 viewBox="0 0 283.5 72.3" style="enable-background:new 0 0 283.5 72.3;" xml:space="preserve">
<style type="text/css">
	.st0{fill-rule:evenodd;clip-rule:evenodd;fill:#CD9945;}
</style>
<path class="st0" d="M38.4,65.1L38.4,65.1L38.4,65.1L38.4,65.1z M27.4,55.4c0.2,0.1,0.3,0.2,0.4,0.3C27.7,55.7,27.6,55.5,27.4,55.4
	L27.4,55.4z M113.3,40.4l0.6-0.9l1,0.3l0.6-0.5h0.2l0.1-0.1l-0.7-0.9h-0.6l-0.6-1.6c-0.3-0.2-0.7-0.4-1-0.6l-0.4-0.3l-0.1-0.3
	l-1.2-0.4l-0.4-0.9l-2.2-1.3c-0.7,0-1.3-0.2-1.9-0.7l-0.1-0.1h-0.5l-0.3-0.3c-0.5,0-1-0.1-1.4-0.3l-0.2,0.3c0.1,0.3,0.1,0.6,0.1,0.8
	v0.6l0.6,2.2l-0.6,0.3v0.8c0,0.1,0,0.2-0.1,0.5l0.4,0.4l-0.6,1.8l0.4,1.2l-0.4,0.5l0.1,0.2l-0.1,0.9l0,0l0.1,0
	c0.6-0.2,1.7-0.3,2.5,0c0.3,0,0.6-0.2,1-0.4l0.1-0.1l0.3-0.1c0.5,0,0.9-0.1,1.1-0.1v-0.1l0.6,0l0.5-0.1l0.5,0l0.3-0.1
	C111.9,40.6,112.5,40.3,113.3,40.4L113.3,40.4z M121,37.7c0.4,0.5,0.6,1.1,0.6,1.6l-0.1,0.7l-0.2,0.5l-0.2,0.8l-0.8,1.3l-0.4,1
	l-1,0.5l-0.3,0.5l-1.4,0.5l-0.8,0.5l-0.3,0.4h-1.2c-0.5,0.4-1.2,0.7-2,0.7l-0.1,0l-0.3,0.2l-0.8-0.1l-0.3,0.1l-0.4,0l0,0
	c-0.8,0.2-1.4,0.4-1.9,0.3c-0.9,0.3-1.6,0.4-2.2,0.3l-0.8,0.2l-0.2-0.1l-0.6,0.7l-1-0.3l-0.4,1l-2.1,2.7l-1.1-1.1h-1.8l0.2-2h-0.9
	l-1.4-1.1L96,45.1l1.2-1.2c0.4-0.4,0.8-0.7,1.4-1c0-0.2,0.1-0.3,0.1-0.5l-0.1-1.9l0.1-0.6l0-1.2l0.1-0.1L98.2,38l0.7-1.6l-0.2-2.3
	l0.1-1.2l0-0.3l-0.4-1.2V31L97,31.2h0c-0.9,0-1.9-0.5-2.4-2.6l-0.4-2.2l0.6-0.5c0.9-0.8,1.7-1.2,2.6-1.3c0.7-0.2,1.5-0.3,2.2-0.4
	c0.2,0,0.5,0.1,0.8,0.2c0.2,0,0.4-0.1,0.7-0.2l1-0.2l0.2,0.5l0.8,0l2.2,0.6l1.5-0.2l0.9,1.2l0.4,0.2l0.3,0.1l0.4,0.1
	c0.6,0,1.1,0.2,1.6,0.5c0.8,0.3,1.4,0.6,1.9,1.2c0.2,0.1,0.3,0.1,0.5,0.2c0.4,0.3,0.5,0.3,0.6,0.3l0.4,0l1.4,1.1l0.9,0.9h0.6
	l1.1,0.9l0.1,0.7c0.6,0.6,1.3,1.4,1.9,2.3l0.1,0.2l0.9,0.5v1.3l0.4,0.4L121,37.7z M140.7,35.7l-0.3-3l-0.6-1.2h-0.6l-0.1-0.8
	l-0.1,0.2l-0.7,0.8l-0.3,1.6l-1.3,0.7c-0.2,0.6-0.4,1.2-0.8,1.8c0.3,0,0.6,0.1,0.8,0.3c0.2,0,0.5,0,0.8,0c0.6,0,1,0,1.4,0.1
	L140.7,35.7z M151.7,47.3l1.4,0.9l0,0.8c0,0.8-0.3,2.2-2.2,2.8l-0.5,0.2l-1.7-0.9h-0.6l-0.5-0.4h-0.9l-0.7-1.2l-0.4-0.2l-0.7-1.3
	l-0.9-1.1v-0.3l-0.2-0.2l-0.1-0.8l-0.5-0.6l-0.8-1.9l-0.5-0.6l-0.1-1.2l-1.3,0.8l-0.2-0.2l-1,0.7l-0.5-1.1c-0.1,0-0.3,0-0.4,0
	l-0.9,0.5l-1-0.1l-0.8,0.5l-0.9-0.4c-0.3,0-0.6,0-0.9-0.1l-1.5,0.8L132,42c-0.3,0.4-0.5,0.8-0.7,1l-0.3,0.4l-0.6,0.2
	c-1.2,2-1.7,2.4-2.1,2.6l-1.5,1.9l-0.6,1l-2.2,1.3c-0.3,0.1-0.6,0.1-0.9,0.1c-0.8,0-1.6-0.3-2.3-1l-0.7-0.7L121,47v-0.8l0.2-0.3
	l0.1-1.6l2-0.3l0.1-0.8l0.8-0.3h0l0.1-0.5l0.5-0.3c0.4-0.2,0.6-0.6,0.8-1.1l0.2-0.7l0.9-0.4l0.3-0.6c-0.1-0.3-0.2-0.6-0.2-0.9
	l-0.2-0.8l1-0.9v-1.7l2.3,0.2c0.1-0.2,0.3-0.4,0.5-0.6l0.1-0.9l1.2-0.7c0.1-0.3,0.1-0.5,0.3-0.7l0.3-0.4c0.3-0.3,0.4-0.5,0.4-0.8
	l0-1l1-0.3l0.2-0.4l0.3,0l0.8-1.7v-1.3h1c0.2-0.2,0.3-0.4,0.3-0.5l0-0.2l-0.2-0.6l0.4-0.6c0.7-0.9,1.3-1.5,1.9-1.7l1.4-1.4l1.6,1.8
	l1.5,0.9l0.2,1.5c0.1,0.1,0.1,0.2,0.2,0.3c0.4,0.6,0.7,1.3,0.8,2.1l0.2,0.7l0.6,1.2l0.4,1.9l1,1.4l-0.1,0.2l0,1.7l1.2,0l0.2,0
	c0.7-0.4,1.6-0.6,3,0.1l1.9,0.1l0.2,1c0.1,0.3,0.1,0.6,0.1,0.8c0,0.9-0.4,1.7-1.3,2.2l-0.5,0.3l-0.5-0.2l-1,0.8l-1.1-0.2l-0.5,0.2
	l-0.4,0l0.2,0.5l0.1,0.7l1,1.6l-0.1,0.4l0,0l1,1.6l0.7,0.9l0.8,0.5L151.7,47.3L151.7,47.3z M195,25.8l-0.1,1.6
	c0,0.2,0.1,0.4,0.1,0.6c0,0.5-0.2,1.1-0.5,1.6c0,0.2-0.1,0.3-0.1,0.3c0,0.3,0,0.3-0.9,2.6l-0.7,1.7v0.2L191,37l-0.5,1.2l-0.7,0.9
	l-0.7,1.8l-0.7,0.3l-0.1,0.3l-0.2,0.1l-0.6,1.3l-0.4,0.3l-0.1,0.3l-0.9,1.3l-0.4,1l-0.2,0.3l-0.1,0.6l-0.2,0.4l0.2,1.3l-0.1,0.3
	c-0.3,1-1,1.7-2.2,2.1c-0.3,0.2-0.7,0.3-1.2,0.3l-0.4-0.1l-1.7-0.8l-0.8-2.3l-1-1.9l0-0.7l-0.5-0.6l-0.5-1.3c-0.2-0.5-0.4-1-0.7-1.6
	l-0.1-0.4c0-0.1,0-0.2-0.1-0.4l-0.7-1.4l0-0.2l-0.4-0.3l-0.4-2.2l-0.3-0.6c-0.1,0.4-0.4,1-1,1.3l-0.5,0.6l-0.2,0l-0.2,0.3
	c0.1,0,0,0.1,0,0.2c-0.1,0.4-0.4,1-0.8,1.4l-2.3,2.9v0c0,0,0,0.1-0.1,0.2c0-0.1,0,0.1,0,0.3c0,0.3,0,0.7-0.1,1v1.1l-0.9,0l-0.2,0.4
	l-0.2,0.3l-0.5,1.1l0.5,1l-1.3,0.1c-0.3,1.3-1.2,2-2.5,2c-0.7,0-1.4-0.3-2-0.9l-0.2-0.2l-1.2-1.8l-0.4-0.8l-1.2-2.2l-0.5-1.8
	l-0.8-1.8l-0.1-0.7l-0.4-0.9l-0.5-2l0-0.4l-1.1-3.7l0-0.2l-0.4-1.4v-0.8l-0.1-1l-0.7-0.9l0.8-2.4c0.5-2.1,1.9-2.3,2.5-2.3
	c0.2,0,0.6,0,1.4,0.3l0.4,0.2c1,0.9,1.4,2,1.5,3.2l0.3,0.4l-0.4,1.4V30l0.4,3.3l0.4,0.9l0.5,2.7l0.2,0.4l0.2,0.8l0.6,0.2l0,1.5
	l0.4,0.9l0,0.4l0.1-0.3l0.2-0.3c0.1-0.1,0.2-0.2,0.3-0.3l0,0l0.3-0.6l0.4-0.3l0.1-0.5l1-1.1l0.4-1.2l0.6-0.2c0-0.1,0-0.2,0-0.3
	c0-0.4,0.1-0.9,0.6-1.1l0.3-0.3l0.2-0.8l0.6-0.2c0.1,0,0.2-0.1,0.3-0.4l0.2-0.7l0.5-0.4l0.4-1.4h0.6l0.3-0.6l0.2,0l0.4-0.6l0.2-1.5
	l0.4-0.3c0.2-0.1,0.4-0.4,0.8-0.6l0.4-0.4l0.3-0.5h2.2l0.9,1l1.1,0.5l0.2,1.9l0.1,2l1,2.8l-0.1,0.4l0.2,0.3l0.1,0.4
	c0.2,0.4,0.5,1.1,0.9,2.9l0.6,1.4l0.4,0.5l0.2,0.5l0.2-0.6l0.5-0.6v-0.2L183,39c0.2-0.2,0.4-0.3,0.7-0.5l0.6-1l1-1.2l0.8-1.4l0.7-1
	l0.6-1.2l0.6-0.7l0.5-1l-0.3-0.4l0.8-1.8c0,0,0-0.1,0.1-0.2c-0.1-0.4-0.2-0.9-0.2-1.4v-0.7l0.7-1l0.2-0.7c0.7-1.2,1.7-1.4,2.2-1.4
	c0.7,0,1.4,0.3,2,1L195,25.8L195,25.8z M232.3,31.4l-2.2,2l0.5,0.8l-3,2.1h-0.5c-0.1,0-0.1,0-0.2,0l-0.4,0.4l-0.7-0.1l-1,0.9l-1-0.7
	l-0.1,0l-0.8,0.5l-0.1,0.6l0,0.3c0,0.3,0,0.5,0,0.8l0,0.2c0,0.6,0,1-0.2,1.5c0.1,0.3,0.1,0.5,0.2,0.7l0.1,0.8l-0.4,0.4l0.1,1
	l-0.4,2.7c0,0.3,0.1,0.5,0.1,0.6l0.2,0.5l0,1.3c0,0.3-0.1,0.5-0.2,0.8c-0.1,0.8-0.6,2.6-3.2,2.7l-1.2,0l-0.2-2l-0.2-0.5l-0.3-1.3
	v-1.4l-0.4-1.7l0.2-0.1l0-1.1l0.1-1.8l0-1.4l0.1-1.1l0-0.8c0-0.4,0.1-0.8,0.2-1.2c-0.5,0.1-1.1,0.1-1.4,0.1l-1.7,0.6l-2.1-0.3
	c-0.3,0-0.6-0.1-0.8-0.1c-0.1,0-0.4,0-1,0.2l-0.2,0l-1.4,0.7l-0.8-0.6l-0.8,0.2l-0.2,0.8l-1.7-0.8v0.5l-0.1,1l0.1,1l-0.2,0.5
	l0.2,0.5L205,44l0.2,0.6l-0.2,1.1l0.5,1.1l-0.3,0.5l0,0.2v0.1c-0.1,1.5-1,2.4-2.3,2.4c-1,0-2.8-0.5-2.9-4.2l-0.5-0.8l-0.3-1
	c0-0.5,0.1-1,0.3-1.4l0-0.2l-0.1-0.4l-0.2-3.8l-0.8-0.5l-0.2-3.8l1.3-0.8c0-0.3,0-0.6,0-0.9c0-0.5,0-1-0.1-1.3l-0.9-3.1l1.1,0.6
	l-0.1-0.6l0-1.2l0.4-2.4l2.8-1.7l1.3,1l1.4,0.5l0.2,1.5l0.5,0.9l-0.2,0.6c-0.1,0.3-0.2,0.6-0.3,0.9c0.1,0.5,0.1,0.9,0.1,1.4
	c0,0.8-0.1,1.5-0.2,2.3l0.4,0.9h0.2l1.2-0.2l0.4,0.2l1.9,0c0.3,0,0.6,0,0.9,0l1-0.6l1,0.6l0.6,0.1l0.5,0l3.5-0.5l0.2-0.4l-0.3-1.9
	l0.2-0.4l-0.6-1.8l-0.4-0.6l0.3-0.7c0-0.1,0.1-0.2,0.1-0.3c0-0.3,0.1-0.9,0.8-1.4l0.6-2l2.7,0.7l2.1-0.5v0.7l0.6-0.1l-0.1,4.3
	l0.2,0.7v0.4l0.3,1l-0.3,0.9l0.1,0.4l-0.1,0.8l0.9-0.2l0.8,0.1l0.3-0.1l0.8,0c0.6-0.2,1.2-0.2,1.8,0L232.3,31.4L232.3,31.4z
	 M255.5,37.3l0-0.1l0.3-0.7l-0.2-1.3l0.1-0.2l-0.1-0.4l-0.5-0.4l-0.2-0.6l-0.4-0.2l-0.2-0.9l-0.6-0.6l-0.2,0.1l-0.7-0.6
	c-0.2-0.2-0.9-0.7-2.7-1.1c-0.1,0-0.3,0-0.5-0.1l-0.4-0.1l-0.5,0.3l-0.5-0.2c-0.1,0-0.2-0.1-0.2-0.1c-0.2,0.1-0.4,0.1-0.5,0.1
	c-0.4,0.3-0.8,0.6-1.5,0.9l-0.3,0.1l-0.4-0.1l-0.5,0.3l-0.6-0.1c-0.3,0.3-0.7,0.5-1.1,0.8l-0.3,1.3l-1.2,0.6
	c-0.1,0.2-0.2,0.4-0.4,0.6v1.1l-0.9,0.4l-0.3,1.3l-0.4,0.3c-0.1,1.4-0.4,2.4-0.8,3.1c0,0.1-0.1,0.2-0.1,0.6l-0.1,0.4l0.1,0.4
	l0.5,0.6l0.1,0.5c0.4,0.2,0.8,0.4,1,0.4l2.2-0.6l0.4,0.5l1.2-0.3l1,0.2c0.2-0.1,0.4-0.2,0.6-0.2c0.6-0.3,1.1-0.6,1.6-0.6l1-0.6
	l0.4,0l0.5-0.5l1.4-0.1c0.2-0.2,0.4-0.3,0.6-0.5L252,39l0.9,0.6l0.6-0.6l0.3,0.1l0.1-0.1L255.5,37.3L255.5,37.3z M260.3,32.1
	c1.1,2.8,1.2,3.4,1.2,3.8l-0.1,1.1l-0.3,0.7l-0.2,1.7l-0.4,0.4c-0.3,1.4-0.9,2.3-1.9,2.8l-0.2,0.1l-2.2,1.8l-0.6,0.4l-1.5,1.8
	l-0.9-0.2l-0.2,0.1l-0.9,0.4l-2.3,1.4l-0.5-0.2c0,0-0.1,0-0.1,0c-0.2,0.1-0.4,0.2-0.6,0.2l-1.2,1l-0.6-0.4l-0.4,0.3l-1.9-0.1
	l-2.1,0.4l-0.8,0l-1.7-0.3l-0.2-0.2l-1.5-0.3l-0.4-0.2h-1.9v-1.3l-0.2-0.3l-1.3-0.6l-0.6-2.2l0-0.7l-0.2-0.3l-0.1-2.7l0.5-1.8
	l0.1-2.4l0.6-0.7l0.1-0.3l0.2-0.4l0-0.4l-0.4-0.9l1.2-0.9l0.6-1.4l1.9-3.1l0.4-0.2l0.2-0.3l0.2-0.2v-1.2l1.3-0.3
	c0.3-0.3,0.7-0.5,1.1-0.7l0.3-0.3l0.2-0.1c0.3-0.1,0.8-0.3,2.4-0.6l1.2-0.2l1.5,0.2l2.4,0l1,0l0.6-1.3L252,25l0.5,0l0.3,0.4l1.1,0.1
	l3.2,1.5l0.5,1.3l0.7,0.3l1.3,2.4L260.3,32.1L260.3,32.1z M76.1,44.1c0.4-1,0.4-2.5-4.3-7.5c-1.5-1.6-4.7-4.9-6-5.5
	c-0.8-0.4-1.7-0.2-2.6,0.4c-2.3,1.5-7.1,7.7-8.8,11.7c-2.5-0.4-4.6-1.3-6.1-3c-3.2-3.4-3.7-8.8-3.7-11.2c0-0.5,0-0.9,0-1.3h5.7
	c1,0,1.8-0.8,1.8-1.8c0-1-0.8-1.8-1.8-1.8h-5.7v-6.3c0-1-0.8-1.8-1.8-1.8c-1,0-1.8,0.8-1.8,1.8v6.3h-5.7c-1,0-1.8,0.8-1.8,1.8
	c0,1,0.8,1.8,1.8,1.8H41c0,0.2,0,0.5,0,1c-0.1,1.4-0.3,3.6-1.1,6c-1.5,4.8-4.4,7.6-8.6,8.5c-1,0.2-1.6,1.2-1.3,2.1
	c0.2,0.8,0.9,1.4,1.7,1.4c0.1,0,0.2,0,0.4,0c5.5-1.2,8.7-5,10.5-9.1c0.7,1.8,1.7,3.6,3.1,5.1c2.1,2.3,4.8,3.6,8.1,4.1
	c0,4.4,0,5.2-0.1,6.2c0,0.5,0,1-0.1,1.8c0,1-0.8,1.6-1.1,1.9c-0.7,0.5-1.6,0.5-2.3,0.2c-0.9-0.4-1.9,0-2.3,0.9c0,0,0,0,0,0
	c-0.4,0.9,0,1.9,0.9,2.4c0.8,0.4,1.6,0.5,2.4,0.5c1.1,0,2.2-0.3,3.3-0.9c1.7-1.1,2.8-2.8,2.8-4.8c0-0.8,0-1.3,0.1-1.8
	c0.1-1,0.1-1.8,0.1-6.2h7.5C72.1,46.8,75.1,46.8,76.1,44.1L76.1,44.1z M36.2,61.4L36,61.3C36.1,61.3,36.1,61.4,36.2,61.4z M34,60.2
	c0.1,0.3,0.4,0.5,0.5,0.7C34.3,60.7,34.1,60.5,34,60.2z M28.1,58.8L28.1,58.8c0.1,0.1,0.3,0.2,0.4,0.3C28.3,59,28.2,58.9,28.1,58.8z
	 M46.2,9l0.5,0L46.2,9z M64.6,22.9c-1.4,0-2.5,1.1-2.5,2.5v0c0,1.4,1.1,2.5,2.5,2.5l0,0c1.4,0,2.5-1.1,2.5-2.5v0
	C67.2,24.1,66,22.9,64.6,22.9L64.6,22.9z M22.8,39L22.8,39c-0.1,0.2-0.2,0.2-0.2,0.3C22.5,39.2,22.6,39.1,22.8,39z M83.7,32
	c0,0,0.1,0.1,0.1,0.1c0,0.5-0.2,0.9-0.1,1.4c0.1,0.7-0.1,1.3-0.3,1.9c0,0.8,0,1.6-0.2,2.3c0,0-0.1,0-0.1,0c0,0.3-0.1,0.5-0.1,0.8
	c-0.1,0.4-0.1,0.9-0.2,1.3l-0.1,0.4l-0.4,1.4c0,0-0.1,0-0.1,0c0,0.4,0,0.7,0,1.1c-0.3,0.9-0.7,1.8-1,2.6l-0.1,0.3L80.8,46l-0.2,0.4
	c-0.1,0.2-0.3,0.4-0.4,0.6l-0.7,1.4c0,0-0.1,0-0.1,0l-0.3,0.8l-1.1,1.4l-0.2,0.3v0c0,0.1-0.1,0.2-0.1,0.3l-0.1,0c0,0.1,0,0.2,0,0.3
	l-0.1,0l0,0.3c0,0-0.1,0-0.1,0l-0.3,0.4c0,0.1-0.1,0.2-0.2,0.3l-0.1,0.2c0,0-0.1,0-0.1,0c-0.8,1.1-1.8,2.1-2.7,3.2L73,56.9l-0.4,0.3
	c0,0,0,0.1,0,0.1c0.1,0.5,0.1,0.5,0.6,0.6c0,0.3-0.1,0.5-0.4,0.6l-0.2,0.1l-0.1,0.1c0,0-0.1,0.1-0.1,0.1l-0.4,0.5
	c-0.5,0.4-1.1,0.7-1.7,1c-0.1,0.1-0.2,0.2-0.3,0.2c-0.4,0-0.6,0.2-0.8,0.5c-0.1,0-0.2,0.1-0.3,0.1l0,0l-0.2,0.1l0,0l-0.4,0.1l0,0
	L68,61.6l0,0l-0.3,0.1l0,0c-0.1,0-0.2,0.1-0.3,0.2l0,0c-0.1,0-0.1,0-0.2,0c0,0-0.1,0-0.1,0c0,0,0,0.1,0,0.1L67,62l-0.1,0.2l-0.3,0.1
	l-0.2,0.1l-0.1,0c0,0,0,0.1,0,0.1c0,0-0.1,0-0.1,0c-0.1,0-0.2,0.1-0.3,0.1l0,0c-0.1,0-0.3,0-0.4,0l0,0c-0.5-0.2-0.9,0-1.3,0.3
	c0.4-0.3,0.8-0.5,1.3-0.3l-0.2,0.1c0,0,0,0.1,0,0.1c0,0-0.1,0.1-0.1,0.1c0,0-0.1,0-0.1,0l0,0.1c0,0-0.1,0-0.1,0l-0.1,0.1l0,0
	c-0.1,0-0.2,0-0.3,0l0,0c0,0,0,0.1,0,0.1c0,0.2,0.1,0.3,0.3,0.3l0.3-0.1l0.4-0.1l0.1-0.1h0c0,0,0.1-0.1,0.1-0.1l0.1-0.1l0,0L66,63v0
	l0.3,0h0.3l0,0.3l-0.3,0.3c0,0-0.1,0.1-0.1,0.1c-0.1,0-0.3,0.1-0.4,0.1L65.6,64c-0.2-0.2-0.4-0.2-0.6,0l-0.1,0c0,0,0,0.1,0,0.1
	l-0.6,0.2l-0.1,0.1l-1.3,0.4L62.8,65c-0.5,0.2-0.9,0.4-1.4,0.4l-0.2,0.1l-0.3,0.7l0.1,0l-0.2,0.2l-0.3,0.1c0,0-0.1,0-0.1,0l-0.1,0
	c0,0,0-0.1,0-0.1l0.1-0.4l-0.1,0l-0.3,0.1c0,0,0,0.1,0,0.1l-0.3,0.1h0c-0.1,0-0.2,0.1-0.3,0.1l0,0l-0.1,0.1v0l-0.3,0.1l-0.1,0.1
	l-0.1,0h-0.1c-0.1-0.2-0.2-0.3-0.4-0.3h0v-0.1c0,0,0-0.1,0-0.1c0-0.1,0.1-0.2,0.1-0.3c-0.2-0.2-0.3,0-0.4,0.1l-0.1,0l-0.3,0.1h-0.1
	c-0.1-0.1-0.1-0.3-0.2-0.4l0.6-0.3l-0.2-0.2L57,65.6c-0.3,0.3-0.5,0.7-1,0.7c0.1-0.1,0.1-0.3,0.2-0.3c0.1-0.1,0-0.2,0-0.4l-0.3,0
	l-0.4,0.3l-0.2,0.3l-0.4,0.3c-0.5,0-0.9,0-1.4,0l0.2,0.7l-0.3,0.1c-0.1,0-0.3,0-0.4,0l-0.2,0c-0.1,0-0.1,0-0.2,0l-0.3,0l0,0
	c0-0.3,0.1-0.4,0.4-0.4c0.2,0,0.4-0.1,0.4-0.3c-0.1,0-0.2-0.1-0.3-0.1h0c-0.5-0.1-0.9,0-1.2,0.4c0.3,0.1,0.5,0.2,0.2,0.4h0l-0.6,0
	l-0.4,0h-0.3c-0.1-0.2-0.3-0.2-0.4-0.1L50,67.1l0-0.3c-0.1-0.1-0.2-0.3-0.3-0.4v0l-0.1,0.7l-0.9,0l-0.4,0l-0.1-0.1L48,66.8
	c0,0,0,0.1,0,0.1c-0.1,0-0.2,0-0.3,0c0,0-0.1,0-0.1,0l0-0.1c0,0-0.1,0-0.1,0l-0.1,0l-0.1,0c0,0-0.1,0-0.1,0c0,0-0.1,0-0.1,0h-0.2
	l0,0h-0.4c-0.5-0.4-1-0.4-1.6-0.5l-0.1,0c-0.2,0-0.5-0.1-0.7-0.1l-0.3,0.1l0,0c0-0.2-0.1-0.4-0.3-0.4h0c-0.2,0-0.4-0.1-0.6-0.1
	l-0.1,0l-0.3-0.1l0,0L42,65.4c0.1-0.1,0.2-0.1,0.3-0.2c0.1-0.1,0.2-0.1,0.3-0.2l-0.2-0.1h0c-0.1,0-0.2,0-0.3,0l-0.4,0.4l-0.3,0
	l-0.6-0.1c-0.1,0-0.2-0.1-0.3-0.1l0-0.1l0,0l-0.1,0l0-0.4v0l-0.6,0.3c-0.1,0-0.3-0.1-0.4-0.1l0-0.4v0L39.2,64c0,0,0-0.1,0-0.1
	l-0.4,0.4L38.4,64c0,0,0.1-0.1,0.1-0.1l-0.4-0.3L38,63.4l-0.4-0.2L37.1,63h0c-0.2,0-0.5-0.1-0.6-0.3c-0.4-0.3-0.8-0.5-1.2-0.8
	c0,0-0.1-0.1-0.1-0.2c-1.2-0.8-2.5-1.6-3.5-2.5c-0.1,0-0.1-0.1-0.2-0.1l-0.9-0.7c-0.2-0.1-0.4-0.1-0.6-0.2l-0.2-0.4l-0.3-0.6l-0.1,0
	l-0.3-0.1L28.9,57h-0.1l-0.1-0.7v-0.1l0-0.2l-0.5-0.5c0,0-0.1,0-0.1,0l0-0.1v0c-0.1,0-0.1,0-0.2,0c0,0-0.1-0.1-0.1-0.1
	c0,0,0-0.1,0-0.1l-0.2-0.2c0,0,0-0.1-0.1-0.1l-0.1,0l-0.2-0.2l-0.1-0.1l0,0c0,0-0.1-0.1-0.1-0.1l0,0c0,0-0.1-0.1-0.1-0.1l-0.1-0.1
	c-0.1-0.1-0.3-0.3-0.4-0.4c0,0-0.1-0.1-0.1-0.1c0-0.2-0.1-0.4-0.1-0.6c0.1,0,0.2,0.1,0.3,0.1c0.2,0.1,0.3,0,0.3-0.1l-0.2-0.5l-0.4,0
	c0,0.1-0.1,0.2-0.1,0.3c0-0.1-0.1-0.2-0.1-0.3l0.3,0l-0.1-0.3c0,0-0.1,0-0.1,0l0-0.4l0-0.1l0.2-0.4c0-0.3-0.1-0.6-0.4-0.7l-0.4-0.7
	c0,0-0.1,0-0.1,0L24.6,50c0,0-0.1,0-0.1,0l0.1-0.6h0l-0.1-0.1c0,0,0-0.1,0-0.1l-0.1-0.1l-0.4-1l0-0.7c0,0-0.1-0.1-0.1-0.1l0-0.3
	l-0.4,0c0,0-0.1-0.1-0.1-0.1l0.1-0.6c0-0.1-0.1-0.1-0.1-0.2c0,0,0-0.1,0-0.1l-0.1-0.3l0,0c0-0.1-0.1-0.3-0.1-0.4l0,0
	c0.1,0,0.2,0,0.3,0.1c0.1,0.2,0.2,0.4,0.3,0.6l0.2,0l0-0.1c0-0.1-0.1-0.1-0.1-0.2v-0.3l0-0.1l-0.1-0.1l0-0.3l-0.1-0.1l-0.1,0
	c0-0.1-0.1-0.3-0.1-0.4h0L22.8,44l0-0.1l0.1-0.4l0.1-0.1l0-0.1c0,0,0.1,0,0.1,0c0,0,0-0.1,0-0.1h-0.1c0-0.1-0.1-0.2-0.2-0.3v-0.1
	l0-0.2l-0.1,0l-0.1,0v-0.3l-0.1,0c0,0,0-0.1,0-0.1l0-0.7c-0.1-0.2-0.3-0.4-0.1-0.7c0.1-0.1,0.1-0.3,0.1-0.5
	c-0.1-0.2-0.1-0.4-0.2-0.6l-0.2-0.8l-0.2,0l0-0.2c0-0.2,0.1-0.5,0.1-0.7c0.2-0.3,0.1-0.5-0.2-0.7c0,0,0-0.1,0-0.1
	c0.1-0.3,0.3-0.6,0.1-1c0,0,0-0.1,0-0.1l0.1-0.7l0,0l0.2,0.4c0.1,0,0.2,0.1,0.3,0.1l0.1-0.2c0-0.2-0.1-0.4-0.1-0.7
	c0-0.1-0.1-0.3-0.1-0.4l0-0.5c0-0.1,0-0.1,0-0.2h0l0.1-0.1c0-0.1,0.1-0.2,0.1-0.3l0-0.4l0.1,0l-0.1-0.3c0,0,0-0.1,0-0.1l0-0.4
	c0.2,0.2,0.3,0.1,0.3-0.1l0-0.1c0.1-0.1,0.1-0.3,0-0.4v-0.1v-0.3v0v-0.4l0,0l0.1-0.1l0-0.6c0,0,0.1,0,0.1,0l0-0.5c0,0,0-0.1,0-0.1
	l0.1-0.3c0,0,0-0.1,0-0.1c0.2-0.3,0.1-0.6,0-0.9c0-0.1,0.1-0.4,0.1-0.4c0.5-0.1,0.4-0.5,0.4-0.8l0,0l0.3,0c0,0,0,0.1,0,0.1
	c-0.2,0.6-0.5,1.2-0.4,1.8c0.2,0.2,0.3,0.5,0.7,0.4c0,0,0-0.1,0-0.1l0-0.1c-0.1-0.4-0.4-0.9,0-1.3c0.1-0.1-0.1-0.3-0.1-0.4l0,0
	c0,0,0.1-0.1,0.1-0.1l0-0.1l0.1-0.1l0-0.1l0.1-0.4c0,0,0-0.1,0-0.1l0.1-0.4l0.1-0.3c0-0.1,0.1-0.1,0.2-0.2c0,0,0,0.1,0,0.1
	c0.1-0.3,0.3-0.5,0.4-0.8c0.1-0.2,0.3-0.4,0.4-0.5l0-0.5l0.1-0.1l0.3-0.9l0.7-0.9c0.1-0.2,0.1-0.3,0.2-0.5c0-0.1,0.1-0.1,0.1-0.2
	l0.2-0.3l0.3-0.4c0.2-0.2,0.4-0.4,0.4-0.7c0-0.1,0.1-0.2,0.1-0.3l0.2-0.3c0.1-0.1,0.2-0.1,0.4-0.2l0.2-0.3l0.2-0.3l0.1-0.1l0.1-0.1
	l0.1-0.1l0.1-0.1l0.1-0.2c0,0,0.1,0,0.1,0l0-0.2l0.1-0.2l0.4-0.5l0.1-0.2l0.1-0.1c0,0,0.1-0.1,0.1-0.1c0,0,0.1-0.1,0.1-0.1l0.2-0.2
	c0.1-0.1,0.2-0.2,0.3-0.3l0.1-0.1l0.1-0.1l0.2-0.1l0.1-0.1l0.1-0.1l0.3-0.3c0,0,0.1,0,0.1,0l0-0.2c0,0,0.1-0.1,0.1-0.2
	c0,0,0.1,0,0.1,0l0,0l0.1-0.1l0.4-0.4l0.2,0l0.2-0.1l0.4-0.4l0.2-0.1l0.3-0.1l0.3-0.2c0.1,0,0.1-0.1,0.2-0.1l0.3-0.2l0.2-0.1
	l0.2-0.1c0,0,0-0.1,0-0.1l0.2-0.1c0.1-0.1,0.2-0.1,0.3-0.2l0.2-0.1c0.3-0.2,0.5-0.5,1-0.5c0,0,0-0.1,0-0.1l0.3,0
	c0.1-0.1,0.2-0.2,0.3-0.2c0.1,0,0.3,0,0.4,0l0.2-0.2l0.3-0.2l0.2-0.1L40,9.9l0.3-0.1l0.4-0.2l0.2-0.1l0.3-0.1c0.1,0,0.3-0.1,0.4-0.2
	L42,9c0.2,0,0.5-0.1,0.7-0.2c0,0,0-0.1,0.1-0.1c0,0,0.1,0,0.1,0c0.5-0.1,1-0.2,1-0.8l0.8-0.3l0,0l0.6-0.1l0,0c0.1,0,0.2,0,0.3-0.1
	l0-0.1l0.3,0h0c0.1-0.2,0-0.3-0.2-0.4c0-0.1,0.1-0.2,0.1-0.3c0-0.1,0-0.2,0-0.3l0,0L46,6.2l0.3,0l0.2,0l0,0l0.2,0l0.2-0.2
	c0,0,0.1,0,0.1,0l0.3,0l0.3,0c0,0,0-0.1,0-0.1c0.3,0,0.6-0.1,0.9-0.1l1.9,0l1.3,0.1L52,6c0,0,0.1,0,0.1,0c0,0,0,0,0-0.1l0.6,0
	L53,6.1l0.4,0.1l0.7,0.1c0,0,0.1,0,0.1,0c0.7-0.3,1.4-0.2,2,0l0.3,0l0,0.1c0.6,0.2,1.3,0.3,1.9,0.6c0.4,0.2,0.9,0.1,1.4,0.2
	c0.4,0,0.8,0,1.1-0.1l0.5,0.2c0.4,0.4,0.8,0.4,1.3,0.6c0.1,0.1,0.2,0.3,0.3,0.4c0.2,0.2,0.5,0.3,0.8,0.4c0,0,0.1,0.1,0.1,0.1
	c0.8,0.2,1.5,0.7,2.3,1c0.1,0,0.2,0.1,0.3,0.1c0.4,0,0.6,0.1,0.9,0.3l0.7,0.2l0.2,0.1l0,0.1l0.2,0.1c0.1,0,0.1,0.1,0.2,0.1
	c0.2,0.3,0.6,0.5,1,0.6l1,0l0.1,0.1l0.3,0.1l0.1,0.1c0,0,0.1,0.1,0.2,0.1c0,0,0.1,0.1,0.2,0.1c0,0,0,0.1,0,0.1l0.2,0.1l1,0.3
	c0,0,0,0.1,0,0.1l0.3,0.3c0.4,0.5,0.9,0.9,1.3,1.4c0.1,0.1,0.1,0.2,0.2,0.2c0.4,0,0.6,0.4,0.9,0.6c0,0,0,0.1,0,0.1c0,0,0.1,0,0.1,0
	l0.6,0.9v0l1.5,1.3c0.5,0.6,0.9,1.4,1.4,2c0.2,0.2,0.3,0.5,0.4,0.8c0.3,0.2,0.5,0.4,0.6,0.7c0.3,0.6,0.7,1.1,1.1,1.7l0.1,0.3
	l0.1,0.3l0.2,0.4c0,0,0.1,0,0.1,0c0,0,0,0.1,0,0.1c0,0,0,0.1,0,0.1l0.1,0.2l0.7,1.5l0.1,0.6l0,0.3l0.1,0.2c0,0,0,0.1,0,0.1
	c0.1,0.5,0.1,0.9,0.2,1.4c0,0.2,0.1,0.4,0.1,0.7l0.1,0l0,0.4l0,0.4c0,0,0.1,0,0.1,0l0,0.4l0.1,1.1l-0.1,0.5V32z M64.8,34.6
	c1.8,1.4,6.4,6.3,7.7,8.3c-1.2,0.3-4.5,0.3-7.7,0.3h-6.5C59.8,40.2,63.1,35.8,64.8,34.6z M69.1,65L69.1,65L69.1,65L69.1,65z
	 M51.6,5.4L51.6,5.4L51.6,5.4L51.6,5.4L51.6,5.4z M54.5,5.8L54.5,5.8L54.5,5.8L54.5,5.8z"/>
</svg>
