<?xml version="1.0" encoding="utf-8"?>
<!-- Generator: Adobe Illustrator 24.0.3, SVG Export Plug-In . SVG Version: 6.00 Build 0)  -->
<svg version="1.1" id="圖層_1" xmlns="http://www.w3.org/2000/svg" xmlns:xlink="http://www.w3.org/1999/xlink" x="0px" y="0px"
	 viewBox="0 0 186.2 169.2" style="enable-background:new 0 0 186.2 169.2;" xml:space="preserve">
<style type="text/css">
	.st0{fill:#FFFFFF;}
	.st1{fill:#231815;}
	.st2{fill:#1498D3;}
	.st3{fill:#9ADAEE;}
</style>
<g>
	<g>
		<g>
			
				<rect x="25.5" y="42.3" transform="matrix(1 -9.526137e-03 9.526137e-03 1 -0.4217 0.2837)" class="st0" width="8.1" height="4.2"/>
			<path class="st1" d="M25.6,48c-0.8,0-1.5-0.6-1.5-1.4l0-4.2c0-0.4,0.1-0.8,0.4-1s0.6-0.4,1-0.4l8.1-0.1c0,0,0,0,0,0
				c0.8,0,1.5,0.6,1.5,1.4l0,4.2c0,0.4-0.1,0.8-0.4,1c-0.3,0.3-0.6,0.4-1,0.4L25.6,48C25.6,48,25.6,48,25.6,48z M27,43.8l0,1.3
				l5.1,0l0-1.3L27,43.8z"/>
		</g>
		<g>
			
				<rect x="25.8" y="72.5" transform="matrix(1 -9.560624e-03 9.560624e-03 1 -0.7119 0.2889)" class="st0" width="8.1" height="4.2"/>
			<path class="st1" d="M25.8,78.2c-0.4,0-0.8-0.1-1-0.4c-0.3-0.3-0.4-0.6-0.4-1l0-4.2c0-0.8,0.6-1.5,1.4-1.5l8.1-0.1
				c0.5,0,0.8,0.1,1,0.4c0.3,0.3,0.4,0.6,0.4,1l0,4.2c0,0.8-0.6,1.5-1.4,1.5L25.8,78.2C25.9,78.2,25.8,78.2,25.8,78.2z M27.3,74
				l0,1.3l5.1,0l0-1.3L27.3,74z"/>
		</g>
		<g>
			<g>
				<g>
					
						<rect x="34.5" y="10.8" transform="matrix(1 -9.559101e-03 9.559101e-03 1 -0.8293 0.7744)" class="st0" width="92.1" height="152.7"/>
					<path class="st1" d="M35.3,165.4c-0.8,0-1.5-0.6-1.5-1.4L32.3,11.3c0-0.8,0.6-1.5,1.4-1.5l92.1-0.9c0.4,0,0.8,0.1,1,0.4
						c0.3,0.3,0.4,0.6,0.4,1l1.5,152.7c0,0.4-0.1,0.8-0.4,1c-0.3,0.3-0.6,0.4-1,0.4L35.3,165.4C35.3,165.4,35.3,165.4,35.3,165.4z
						 M35.3,12.7l1.4,149.7l89.2-0.9l-1.4-149.7L35.3,12.7z"/>
				</g>
				<g>
					
						<rect x="72.5" y="141.3" transform="matrix(1 -9.699035e-03 9.699035e-03 1 -1.469 0.7993)" class="st2" width="18.4" height="21.1"/>
					<path class="st1" d="M72.6,164c-0.4,0-0.8-0.1-1-0.4c-0.3-0.3-0.4-0.6-0.4-1l-0.2-21.1c0-0.8,0.6-1.5,1.4-1.5l18.4-0.2
						c0.4,0,0.8,0.1,1,0.4c0.3,0.3,0.4,0.6,0.4,1l0.2,21.1c0,0.8-0.6,1.5-1.4,1.5L72.6,164C72.6,164,72.6,164,72.6,164z M73.8,142.8
						L74,161l15.5-0.1l-0.2-18.2L73.8,142.8z"/>
				</g>
				<g>
					
						<rect x="68.3" y="139.1" transform="matrix(1 -9.476209e-03 9.476209e-03 1 -1.3481 0.7795)" class="st0" width="26.5" height="7.2"/>
					<path class="st1" d="M68.4,147.8c-0.8,0-1.5-0.6-1.5-1.4l-0.1-7.2c0-0.4,0.1-0.8,0.4-1c0.3-0.3,0.6-0.4,1-0.4l26.5-0.3
						c0.4,0.1,0.8,0.1,1,0.4c0.3,0.3,0.4,0.6,0.4,1l0.1,7.2c0,0.8-0.6,1.5-1.4,1.5L68.4,147.8C68.4,147.8,68.4,147.8,68.4,147.8z
						 M69.8,140.6l0,4.3l23.6-0.2l0-4.3L69.8,140.6z"/>
				</g>
				<g>
					
						<rect x="127" y="71.8" transform="matrix(1 -9.599409e-03 9.599409e-03 1 -1.1187 1.4804)" class="st0" width="53.4" height="91"/>
					<path class="st1" d="M127.4,164.5c-0.8,0-1.5-0.6-1.5-1.4l-0.9-91c0-0.4,0.1-0.8,0.4-1c0.3-0.3,0.6-0.4,1-0.4l53.4-0.5
						c0.8,0,1.5,0.6,1.5,1.4l0.9,91c0,0.4-0.1,0.8-0.4,1c-0.3,0.3-0.6,0.4-1,0.4L127.4,164.5C127.4,164.5,127.4,164.5,127.4,164.5z
						 M128,73.5l0.8,88.1l50.5-0.5L178.5,73L128,73.5z"/>
				</g>
				<g>
					
						<rect x="134.8" y="84.4" transform="matrix(1 -9.672955e-03 9.672955e-03 1 -1.1498 1.34)" class="st3" width="6.3" height="70.3"/>
					<path class="st1" d="M135.1,156.2c-0.4,0-0.8-0.1-1-0.4c-0.3-0.3-0.4-0.6-0.4-1L133,84.4c0-0.4,0.1-0.8,0.4-1
						c0.3-0.3,0.6-0.4,1-0.4l6.3-0.1c0.9,0.1,1.5,0.6,1.5,1.4l0.7,70.3c0,0.8-0.6,1.5-1.4,1.5L135.1,156.2
						C135.1,156.2,135.1,156.2,135.1,156.2z M135.9,85.9l0.6,67.4l3.4,0l-0.6-67.4L135.9,85.9z"/>
				</g>
				<g>
					<path class="st1" d="M135.5,106c-0.8,0-1.5-0.6-1.5-1.4c0-0.8,0.6-1.5,1.4-1.5l5.1,0c0,0,0,0,0,0c0.8,0,1.5,0.6,1.5,1.4
						c0,0.8-0.6,1.5-1.4,1.5L135.5,106C135.5,106,135.5,106,135.5,106z"/>
				</g>
				<g>
					<path class="st1" d="M135.8,130.8c-0.8,0-1.5-0.6-1.5-1.4c0-0.8,0.6-1.5,1.4-1.5l5.1,0c0.8,0,1.5,0.6,1.5,1.4
						c0,0.8-0.6,1.5-1.4,1.5L135.8,130.8C135.8,130.8,135.8,130.8,135.8,130.8z"/>
				</g>
				<g>
					
						<rect x="147.8" y="84.3" transform="matrix(1 -9.447019e-03 9.447019e-03 1 -1.1214 1.432)" class="st3" width="6.3" height="70.3"/>
					<path class="st1" d="M148.2,156c-0.8,0-1.5-0.6-1.5-1.4L146,84.3c0-0.4,0.1-0.8,0.4-1c0.3-0.3,0.6-0.4,1-0.4l6.3-0.1
						c0.7,0,1.5,0.6,1.5,1.4l0.7,70.3c0,0.4-0.1,0.8-0.4,1c-0.3,0.3-0.6,0.4-1,0.4L148.2,156C148.2,156,148.2,156,148.2,156z
						 M149,85.7l0.6,67.4l3.4,0l-0.6-67.4L149,85.7z"/>
				</g>
				<g>
					<path class="st1" d="M148.6,105.8c-0.8,0-1.5-0.6-1.5-1.4c0-0.8,0.6-1.5,1.4-1.5l5.1,0c0.9-0.1,1.5,0.6,1.5,1.4
						c0,0.8-0.6,1.5-1.4,1.5L148.6,105.8C148.6,105.8,148.6,105.8,148.6,105.8z"/>
				</g>
				<g>
					<path class="st1" d="M148.8,130.7c-0.8,0-1.5-0.6-1.5-1.4c0-0.8,0.6-1.5,1.4-1.5l5.1,0c0.9-0.1,1.5,0.6,1.5,1.4
						c0,0.8-0.6,1.5-1.4,1.5L148.8,130.7C148.8,130.7,148.8,130.7,148.8,130.7z"/>
				</g>
				<g>
					
						<rect x="161.1" y="84.1" transform="matrix(1 -9.685893e-03 9.685893e-03 1 -1.1477 1.5969)" class="st3" width="6.3" height="70.3"/>
					<path class="st1" d="M161.5,155.9c-0.4,0-0.8-0.1-1-0.4c-0.3-0.3-0.4-0.6-0.4-1l-0.7-70.3c0-0.8,0.6-1.5,1.4-1.5l6.3-0.1
						c0.4,0.1,0.8,0.1,1,0.4c0.3,0.3,0.4,0.6,0.4,1l0.7,70.3c0,0.8-0.6,1.5-1.4,1.5L161.5,155.9
						C161.5,155.9,161.5,155.9,161.5,155.9z M162.3,85.6l0.6,67.4l3.4,0l-0.6-67.4L162.3,85.6z"/>
				</g>
				<g>
					<path class="st1" d="M161.9,105.7c-0.8,0-1.5-0.6-1.5-1.4c0-0.8,0.6-1.5,1.4-1.5l5.1,0c0.8,0.1,1.5,0.6,1.5,1.4
						c0,0.8-0.6,1.5-1.4,1.5L161.9,105.7C161.9,105.7,161.9,105.7,161.9,105.7z"/>
				</g>
				<g>
					<path class="st1" d="M162.1,130.5c-0.8,0-1.5-0.6-1.5-1.4c0-0.8,0.6-1.5,1.4-1.5l5.1,0c0.7,0.1,1.5,0.6,1.5,1.4
						c0,0.8-0.6,1.5-1.4,1.5L162.1,130.5C162.1,130.5,162.1,130.5,162.1,130.5z"/>
				</g>
			</g>
		</g>
		<g>
			
				<rect x="7.4" y="20.7" transform="matrix(1 -9.474047e-03 9.474047e-03 1 -0.623 0.1639)" class="st2" width="19.1" height="90.3"/>
			<path class="st1" d="M7.9,112.5c-0.8,0-1.5-0.6-1.5-1.4L5.5,20.8c0-0.4,0.1-0.8,0.4-1c0.3-0.3,0.6-0.4,1-0.4l19.1-0.2
				c0,0,0,0,0,0c0.8,0,1.5,0.6,1.5,1.4l0.9,90.3c0,0.4-0.1,0.8-0.4,1c-0.3,0.3-0.6,0.4-1,0.4L7.9,112.5
				C7.9,112.5,7.9,112.5,7.9,112.5z M8.5,22.2l0.8,87.4l16.2-0.2l-0.8-87.4L8.5,22.2z"/>
		</g>
	</g>
	<g>
		<g>
			<g>
				
					<rect x="100" y="24.3" transform="matrix(1 -9.777281e-03 9.777281e-03 1 -0.7174 1.0242)" class="st3" width="8.8" height="99.1"/>
				<path class="st1" d="M100.5,124.9c-0.4,0-0.7-0.1-1-0.4c-0.3-0.3-0.4-0.6-0.4-1l-0.9-99.1c0-0.8,0.6-1.5,1.4-1.5l8.8-0.1
					c0.5,0.1,0.8,0.1,1,0.4c0.3,0.3,0.4,0.6,0.4,1l0.9,99.1c0,0.8-0.6,1.5-1.4,1.5L100.5,124.9C100.5,124.9,100.5,124.9,100.5,124.9
					z M101,25.8l0.9,96.2l5.8-0.1l-0.9-96.2L101,25.8z"/>
			</g>
			<g>
				<path class="st1" d="M100.7,45.3c-0.8,0-1.5-0.6-1.5-1.4c0-0.8,0.6-1.5,1.4-1.5l7.6-0.1c0,0,0,0,0,0c0.8,0,1.5,0.6,1.5,1.4
					c0,0.8-0.6,1.5-1.4,1.5L100.7,45.3C100.7,45.3,100.7,45.3,100.7,45.3z"/>
			</g>
			<g>
				<path class="st1" d="M100.9,66.9c-0.8,0-1.5-0.6-1.5-1.4c0-0.8,0.6-1.5,1.4-1.5l7.6-0.1c0.8,0.1,1.5,0.6,1.5,1.4
					c0,0.8-0.6,1.5-1.4,1.5L100.9,66.9C100.9,66.9,100.9,66.9,100.9,66.9z"/>
			</g>
			<g>
				<path class="st1" d="M101.1,88.6c-0.8,0-1.5-0.6-1.5-1.4c0-0.8,0.6-1.5,1.4-1.5l7.6-0.1c0,0,0,0,0,0c0.8,0,1.5,0.6,1.5,1.4
					c0,0.8-0.6,1.5-1.4,1.5L101.1,88.6C101.1,88.6,101.1,88.6,101.1,88.6z"/>
			</g>
		</g>
		<g>
			<g>
				
					<rect x="79.8" y="24.5" transform="matrix(1 -9.609167e-03 9.609167e-03 1 -0.708 0.8121)" class="st3" width="8.8" height="99.1"/>
				<path class="st1" d="M80.2,125.1c-0.4,0-0.8-0.2-1-0.4c-0.3-0.3-0.4-0.6-0.4-1l-0.9-99.1c0-0.8,0.6-1.5,1.4-1.5L88,23
					c0.5,0,0.8,0.1,1,0.4c0.3,0.3,0.4,0.6,0.4,1l0.9,99.1c0,0.8-0.6,1.5-1.4,1.5L80.2,125.1C80.3,125.1,80.3,125.1,80.2,125.1z
					 M80.8,26l0.9,96.2l5.8-0.1L86.6,26L80.8,26z"/>
			</g>
			<g>
				<path class="st1" d="M80.4,45.5c-0.8,0-1.5-0.6-1.5-1.4c0-0.8,0.6-1.5,1.4-1.5l7.6-0.1c0.9,0.1,1.5,0.6,1.5,1.4
					c0,0.8-0.6,1.5-1.4,1.5L80.4,45.5C80.5,45.5,80.5,45.5,80.4,45.5z"/>
			</g>
			<g>
				<path class="st1" d="M80.7,67.1c-0.8,0-1.5-0.6-1.5-1.4c0-0.8,0.6-1.5,1.4-1.5l7.6-0.1c0,0,0,0,0,0c0.8,0,1.5,0.6,1.5,1.4
					c0,0.8-0.6,1.5-1.4,1.5L80.7,67.1C80.7,67.1,80.7,67.1,80.7,67.1z"/>
			</g>
			<g>
				<path class="st1" d="M80.9,88.8c-0.8,0-1.5-0.6-1.5-1.4c0-0.8,0.6-1.5,1.4-1.5l7.6-0.1c0,0,0,0,0,0c0.8,0,1.5,0.6,1.5,1.4
					c0,0.8-0.6,1.5-1.4,1.5L80.9,88.8C80.9,88.8,80.9,88.8,80.9,88.8z"/>
			</g>
		</g>
		<g>
			<g>
				
					<rect x="59.5" y="24.7" transform="matrix(1 -9.608869e-03 9.608869e-03 1 -0.7108 0.6175)" class="st3" width="8.8" height="99.1"/>
				<path class="st1" d="M60,125.3c-0.4,0-0.8-0.1-1-0.4c-0.3-0.3-0.4-0.6-0.4-1l-0.9-99.1c0-0.4,0.1-0.8,0.4-1
					c0.3-0.3,0.6-0.4,1-0.4l8.8-0.1c0,0,0,0,0,0c0.8,0,1.5,0.6,1.5,1.4l0.9,99.1c0,0.8-0.6,1.5-1.4,1.5L60,125.3
					C60,125.3,60,125.3,60,125.3z M60.5,26.2l0.9,96.2l5.8-0.1l-0.9-96.2L60.5,26.2z"/>
			</g>
			<g>
				<path class="st1" d="M60.2,45.7c-0.8,0-1.5-0.6-1.5-1.4c0-0.8,0.6-1.5,1.4-1.5l7.6-0.1c0,0,0,0,0,0c0.8,0,1.5,0.6,1.5,1.4
					c0,0.8-0.6,1.5-1.4,1.5L60.2,45.7C60.2,45.7,60.2,45.7,60.2,45.7z"/>
			</g>
			<g>
				<path class="st1" d="M60.4,67.3c-0.8,0-1.5-0.6-1.5-1.4c0-0.8,0.6-1.5,1.4-1.5l7.6-0.1c0,0,0,0,0,0c0.8,0,1.5,0.6,1.5,1.4
					c0,0.8-0.6,1.5-1.4,1.5L60.4,67.3C60.4,67.3,60.4,67.3,60.4,67.3z"/>
			</g>
			<g>
				<path class="st1" d="M60.6,89c-0.8,0-1.5-0.6-1.5-1.4c0-0.8,0.6-1.5,1.4-1.5l7.6-0.1c0,0,0,0,0,0c0.8,0,1.5,0.6,1.5,1.4
					c0,0.8-0.6,1.5-1.4,1.5L60.6,89C60.6,89,60.6,89,60.6,89z"/>
			</g>
		</g>
	</g>
</g>
</svg>
