<?xml version="1.0" encoding="utf-8"?>
<!-- Generator: Adobe Illustrator 24.0.3, SVG Export Plug-In . SVG Version: 6.00 Build 0)  -->
<svg version="1.1" id="圖層_1" xmlns="http://www.w3.org/2000/svg" xmlns:xlink="http://www.w3.org/1999/xlink" x="0px" y="0px"
	 viewBox="0 0 193.7 191.6" style="enable-background:new 0 0 193.7 191.6;" xml:space="preserve">
<style type="text/css">
	.st0{fill:#FF000A;}
	.st1{fill:#FFFFFF;}
</style>
<g>
	<path class="st0" d="M188.5,95.8c0,50.6-41,91.7-91.7,91.7c-50.6,0-91.7-41.1-91.7-91.7c0-50.7,41.1-91.7,91.7-91.7
		C147.5,4.1,188.5,45.1,188.5,95.8z"/>
	<g>
		<rect x="104.5" y="43.6" class="st1" width="22.9" height="22.9"/>
		<polygon class="st1" points="23,107.2 23,127.6 43.4,127.6 43.4,148 63.7,148 63.7,107.2 		"/>
		<polygon class="st1" points="28.1,66.5 28.1,86.9 84.1,86.9 84.1,148 104.5,148 104.5,66.5 		"/>
		<polygon class="st1" points="124.9,86.9 124.9,148 145.2,148 145.2,107.2 170.7,107.2 170.7,86.9 		"/>
	</g>
</g>
</svg>
