<?xml version="1.0" encoding="utf-8"?>
<!-- Generator: Adobe Illustrator 24.0.3, SVG Export Plug-In . SVG Version: 6.00 Build 0)  -->
<svg version="1.1" id="圖層_1" xmlns="http://www.w3.org/2000/svg" xmlns:xlink="http://www.w3.org/1999/xlink" x="0px" y="0px"
	 viewBox="0 0 187.7 283.5" style="enable-background:new 0 0 187.7 283.5;" xml:space="preserve">
<style type="text/css">
	.st0{fill:#FDDCCB;}
	.st1{fill:#CD9945;}
	.st2{fill:#254B61;stroke:#CD9945;stroke-miterlimit:10;}
	.st3{fill:#FDD435;}
	.st4{fill:#FFFFFF;}
	.st5{fill:#F3FFFF;}
	.st6{fill:none;stroke:#CD9945;stroke-miterlimit:10;}
</style>
<g>
	<g>
		<g>
			<g>
				<path class="st0" d="M150,105.3c-3,0-6-1.1-8.3-3.4c-4.7-4.6-4.7-12.1-0.1-16.7l17.6-17.9c4.6-4.7,12.1-4.7,16.7-0.1
					c4.7,4.6,4.7,12.1,0.1,16.7l-17.6,17.9C156.1,104.1,153.1,105.3,150,105.3z"/>
				<path class="st1" d="M150,106.3c-3.4,0-6.6-1.3-9-3.7c-2.4-2.4-3.8-5.6-3.8-9c0-3.4,1.3-6.7,3.7-9.1l17.6-17.9
					c2.4-2.4,5.6-3.8,9-3.8c0,0,0.1,0,0.1,0c3.4,0,6.6,1.3,9,3.7c5,5,5.1,13.1,0.2,18.1l-17.6,17.9
					C156.7,104.9,153.5,106.3,150,106.3z M167.6,64.7C167.6,64.7,167.6,64.7,167.6,64.7c-3,0-5.7,1.2-7.7,3.2l-17.6,17.9
					c-2,2.1-3.1,4.8-3.1,7.7c0,2.9,1.2,5.6,3.2,7.6c2,2,4.7,3.1,7.6,3.1c2.9,0,5.7-1.2,7.7-3.2l17.6-17.9c4.2-4.3,4.1-11.1-0.1-15.3
					C173.2,65.8,170.5,64.7,167.6,64.7z"/>
			</g>
		</g>
		<g>
			<path class="st2" d="M143.3,163c-5.8-0.1-10.7-4.7-11.1-10.6c-0.4-6.3,4.3-11.7,10.6-12.1l25.1-1.7c6.3-0.4,11.7,4.3,12.1,10.6
				c0.4,6.3-4.3,11.7-10.6,12.1l-25.1,1.7C143.9,163,143.6,163,143.3,163z"/>
		</g>
		<g>
			<path class="st2" d="M167.5,192.3c-0.2,0-0.3,0-0.5,0l-27.8-1.2c-6.3-0.3-11.1-5.6-10.9-11.8c0.3-6.3,5.6-11.1,11.8-10.9
				l27.8,1.2c6.3,0.3,11.1,5.6,10.9,11.8C178.6,187.5,173.5,192.3,167.5,192.3z"/>
		</g>
		<path class="st0" d="M85.6,185.3c-3-7.6-8.1-14.3-15-19.1l-7.7-5.4c-0.9-0.7-1.5-1.8-1.5-3V121c0-1.3,0.5-2.1,0.7-3.3
			c0.9-4,2.2-8,2-12.1c-0.1-3.8-1.3-7.7-3.3-10.9c-1.7-2.8-4-5-7-6.4c-1.6-0.7-3.3-1.1-5-1.1c0,0-7.4,0-7.4,0c-1.1,0-2,0.9-2,2
			l0,29.5c0,1.6-0.2,3.2-0.6,4.7l-7.5,31.6c-0.9,4-1,8.1-0.2,12.1l7.8,37.2c0,0.2,0.1,0.4,0.1,0.6l0.8,3.8c0.7,3.3,0.1,6.8-1.6,9.8
			l-4.3,7.3c0,0-5.5,9.2-5.5,9.2L6.3,272.8h87.5h0.4l6.9-21.6l0.9-2.6c1.1-3.5,3.5-6.4,6.7-8.3c4.8-1.6,9.8-3,13.7-6.3
			c3.9-3.2,7-7.4,10-11.3c0,0,14.6-19.1,14.6-19.1l3.7-4.8L85.6,185.3z"/>
		<path class="st1" d="M86.4,184.4c-3.1-7.7-8.4-14.3-15.2-19.1l-7.7-5.4c-0.7-0.5-1.1-1.4-1.1-2.2V121c0-0.7,0.2-1.3,0.4-1.9
			c0.1-0.4,0.2-0.7,0.3-1.2c0.2-0.7,0.3-1.4,0.5-2.1c0.8-3.3,1.7-6.7,1.5-10.2c-0.1-3.9-1.4-8-3.5-11.4c-1.9-3.1-4.4-5.3-7.4-6.7
			c-1.7-0.8-3.5-1.2-5.4-1.2h-7.4c-1.6,0-2.9,1.3-2.9,2.9l0,29.5c0,1.5-0.2,3-0.5,4.5l-7.5,31.6c-1,4.1-1,8.4-0.2,12.6l7.8,37.2
			c0,0.2,0.1,0.3,0.1,0.5l0.8,3.9c0.6,3.1,0.1,6.3-1.5,9.1l-4.3,7.3l0,0c-0.2,0.3-0.5,0.7-0.9,1.4L5.7,272.8H8l21.6-37.4
			c1.3-2.1,4.2-7.2,5.2-8.7l4.6-7.7c1.9-3.2,2.5-6.9,1.8-10.5l-0.8-3.8l-0.1-0.2c0-0.1-0.1-0.3-0.1-0.4l-7.8-37.2
			c-0.8-3.8-0.8-7.9,0.2-11.7l7.5-31.6c0.4-1.6,0.6-3.3,0.6-5l0-29.5c0-0.5,0.4-1,1-1h7.4c1.6,0,3.2,0.3,4.6,1
			c2.6,1.2,4.8,3.2,6.5,6c1.9,3.1,3.1,6.8,3.2,10.4c0.1,3.3-0.7,6.5-1.5,9.7c-0.2,0.7-0.4,1.4-0.5,2.1c-0.1,0.4-0.2,0.7-0.3,1
			c-0.2,0.8-0.5,1.5-0.5,2.5v36.8c0,1.5,0.7,2.9,1.9,3.8L70,167c6.7,4.6,11.7,11.1,14.7,18.7l0.2,0.5l63.9,13.2l-2.7,3.6
			c-1.5,2-14.6,19.1-14.6,19.1l-0.8,1c-2.7,3.6-5.6,7.4-9.1,10.2c-3.4,2.8-7.8,4.2-12,5.6c-0.5,0.2-0.9,0.3-1.4,0.5l-0.1,0l-0.1,0.1
			c-3.4,2-5.9,5.1-7.1,8.8L93,272.8h2.1l7.7-23.9c1.1-3.2,3.2-6,6.2-7.7c0.4-0.1,0.9-0.3,1.3-0.4c4.4-1.5,8.9-3,12.6-6
			c3.7-3,6.6-6.8,9.4-10.5l0.8-1c0.1-0.1,14.6-19.1,14.6-19.1l4.7-6.1L86.4,184.4z"/>
		<g>
			<g>
				<g>
					<path class="st1" d="M77,221.8c-0.4,0-0.8-0.2-0.9-0.6c-0.2-0.5,0.1-1.1,0.6-1.3c2.5-0.9,4.7-2.4,6.5-4.2
						c2.1-2.1,3.4-5,3.8-8.1l0.3-2.7c0.2-1.6,0.2-3.2,0.2-4.8c0-0.5,0.4-1,1-1c0.5,0,1,0.4,1,1c0,1.7-0.1,3.4-0.2,5.1l-0.3,2.7
						c-0.4,3.6-1.9,6.9-4.3,9.3c-2.1,2.1-4.5,3.7-7.2,4.7C77.3,221.7,77.2,221.8,77,221.8z"/>
				</g>
			</g>
		</g>
		<g>
			<g>
				<g>
					<path class="st2" d="M112,238.4c-4.9,1.6-10.3,1.5-15.3-0.3l-1.5-0.6c-0.3-0.1-0.7,0-0.9,0.4c-0.1,0.3,0,0.7,0.4,0.9l1.5,0.6
						c2.8,1,5.7,1.6,8.6,1.6c2.4,0,4.8-0.4,7.2-1.1V238.4z"/>
					<path class="st2" d="M104.8,241.2c-3,0-5.9-0.5-8.7-1.6l-1.5-0.6c-0.2-0.1-0.4-0.3-0.6-0.5c-0.1-0.2-0.1-0.5,0-0.8
						c0.2-0.5,0.8-0.8,1.3-0.6l1.5,0.6c4.9,1.8,10.2,1.9,15.1,0.3l0.4-0.1v2.1l-0.2,0.1C109.7,240.9,107.3,241.2,104.8,241.2z
						 M94.9,237.8c-0.1,0-0.3,0.1-0.3,0.2c0,0.1,0,0.2,0,0.3c0,0.1,0.1,0.1,0.2,0.2l1.5,0.6c2.7,1,5.6,1.5,8.5,1.5
						c2.3,0,4.6-0.3,6.8-1v-0.7c-4.9,1.5-10.2,1.3-15.1-0.5l-1.5-0.6C95,237.8,94.9,237.8,94.9,237.8z"/>
				</g>
			</g>
		</g>
		<g>
			<path class="st3" d="M61.4,117.6v83.6c0,6.9,5.6,12.4,12.4,12.4h73c6.9,0,12.4-5.6,12.4-12.4v-178c0-6.9-5.6-12.4-12.4-12.4h-73
				c-6.9,0-12.4,5.6-12.4,12.4v72.6V117.6z"/>
			<path class="st1" d="M146.8,214.7h-73c-7.4,0-13.4-6-13.4-13.4v-83.6l2-0.4v84.1c0,6.3,5.1,11.4,11.4,11.4h73
				c6.3,0,11.4-5.1,11.4-11.4v-178c0-6.3-5.1-11.4-11.4-11.4h-73c-6.3,0-11.4,5.1-11.4,11.4v73l-2-0.4V23.2c0-7.4,6-13.4,13.4-13.4
				h73c7.4,0,13.4,6,13.4,13.4v178C160.3,208.6,154.2,214.7,146.8,214.7z"/>
		</g>
		<g>
			<g>
				<path class="st4" d="M72.4,198.9c-3.7,0-6.6-3-6.6-6.6V29.2c0-3.7,3-6.6,6.6-6.6h75.9c3.7,0,6.6,3,6.6,6.6v163.1
					c0,3.7-3,6.6-6.6,6.6H72.4z"/>
				<path class="st1" d="M148.3,199.9H72.4c-4.2,0-7.6-3.4-7.6-7.6V29.2c0-4.2,3.4-7.6,7.6-7.6h75.9c4.2,0,7.6,3.4,7.6,7.6v163.1
					C155.9,196.4,152.5,199.9,148.3,199.9z M72.4,23.6c-3.1,0-5.6,2.5-5.6,5.6v163.1c0,3.1,2.5,5.6,5.6,5.6h75.9
					c3.1,0,5.6-2.5,5.6-5.6V29.2c0-3.1-2.5-5.6-5.6-5.6H72.4z"/>
			</g>
		</g>
		<g>
			<path class="st5" d="M158.7,138.4c-3.2,0-6.4-1.2-8.8-3.6c-4.9-4.9-5-12.8-0.2-17.7l6-6.1c4.9-4.9,12.8-5,17.7-0.2
				c4.9,4.9,5,12.8,0.2,17.7l-6,6.1C165.2,137.2,162,138.4,158.7,138.4z"/>
		</g>
		<g>
			<g>
				<path class="st0" d="M158.7,138.4c-3.2,0-6.4-1.2-8.8-3.6c-4.9-4.9-5-12.8-0.2-17.7l6-6.1c4.9-4.9,12.8-5,17.7-0.2
					c4.9,4.9,5,12.8,0.2,17.7l-6,6.1C165.2,137.2,162,138.4,158.7,138.4z"/>
			</g>
			<g>
				<path class="st1" d="M164.7,107.2c3.2,0,6.4,1.2,8.8,3.6c4.9,4.9,5,12.8,0.2,17.7l-6,6.1c-2.5,2.5-5.7,3.8-8.9,3.8
					c-3.2,0-6.4-1.2-8.8-3.6c-4.9-4.9-5-12.8-0.2-17.7l6-6.1C158.2,108.5,161.5,107.2,164.7,107.2L164.7,107.2z M164.7,105.2
					L164.7,105.2c-3.9,0-7.6,1.5-10.4,4.3l-6,6.1c-5.6,5.7-5.5,14.9,0.2,20.6c2.7,2.7,6.4,4.2,10.2,4.2c3.9,0,7.6-1.5,10.4-4.3
					l6-6.1c5.6-5.7,5.5-14.9-0.2-20.6C172.2,106.7,168.5,105.2,164.7,105.2L164.7,105.2z"/>
			</g>
		</g>
		<g>
			<path class="st5" d="M158.3,170.8c-3.2,0-6.3-1.3-8.5-3.9c-4.1-4.7-3.7-11.9,1-16l10.7-9.4c4.7-4.1,11.9-3.7,16,1
				c4.1,4.7,3.7,11.9-1,16l-10.7,9.4C163.6,169.9,160.9,170.8,158.3,170.8z"/>
		</g>
		<g>
			<g>
				<path class="st5" d="M158.3,170.1c-3,0-5.9-1.2-8-3.6c-3.9-4.4-3.5-11.2,1-15.1l8.1-7L158.3,170.1z"/>
			</g>
		</g>
		<g>
			<path class="st5" d="M161.7,198.8c-2.9,0-5.8-1.1-8-3.4c-4.3-4.4-4.2-11.5,0.2-15.7l7.2-7c4.4-4.3,11.5-4.2,15.7,0.2
				c4.3,4.4,4.2,11.5-0.2,15.7l-7.2,7C167.3,197.7,164.5,198.8,161.7,198.8z"/>
		</g>
		<g>
			<g>
				<path class="st0" d="M161.7,198.8c-2.9,0-5.8-1.1-8-3.4c-4.3-4.4-4.2-11.5,0.2-15.7l7.2-7c4.4-4.3,11.5-4.2,15.7,0.2
					c4.3,4.4,4.2,11.5-0.2,15.7l-7.2,7C167.3,197.7,164.5,198.8,161.7,198.8z"/>
			</g>
			<g>
				<path class="st1" d="M168.9,169.5c2.9,0,5.8,1.1,8,3.4c4.3,4.4,4.2,11.5-0.2,15.7l-7.2,7c-2.2,2.1-5,3.1-7.8,3.1
					c-2.9,0-5.8-1.1-8-3.4c-4.3-4.4-4.2-11.5,0.2-15.7l7.2-7C163.3,170.6,166.1,169.5,168.9,169.5L168.9,169.5z M168.9,167.5
					L168.9,167.5c-3.4,0-6.7,1.3-9.1,3.7l-7.2,7c-2.5,2.4-3.9,5.7-4,9.2c0,3.5,1.3,6.8,3.7,9.3c2.5,2.6,5.8,4,9.4,4
					c3.4,0,6.7-1.3,9.1-3.7l7.2-7c2.5-2.4,3.9-5.7,4-9.2c0-3.5-1.3-6.8-3.7-9.3C175.8,168.9,172.5,167.5,168.9,167.5L168.9,167.5z"
					/>
			</g>
		</g>
		<g>
			<g>
				<path class="st0" d="M158.3,170.8c-3.2,0-6.3-1.3-8.5-3.9c-4.1-4.7-3.7-11.9,1-16l10.7-9.4c4.7-4.1,11.9-3.7,16,1
					c4.1,4.7,3.7,11.9-1,16l-10.7,9.4C163.6,169.9,160.9,170.8,158.3,170.8z"/>
			</g>
			<g>
				<path class="st1" d="M168.9,138.7c3.2,0,6.3,1.3,8.5,3.9c4.1,4.7,3.7,11.9-1,16l-10.7,9.4c-2.2,1.9-4.8,2.8-7.5,2.8
					c-3.2,0-6.3-1.3-8.5-3.9c-4.1-4.7-3.7-11.9,1-16l10.7-9.4C163.6,139.6,166.3,138.7,168.9,138.7L168.9,138.7z M168.9,136.7
					L168.9,136.7c-3.2,0-6.4,1.2-8.8,3.3l-10.7,9.4c-2.7,2.4-4.3,5.6-4.5,9.2c-0.2,3.6,0.9,7,3.3,9.7c2.5,2.9,6.2,4.5,10,4.5
					c3.2,0,6.4-1.2,8.8-3.3l10.7-9.4c2.7-2.4,4.3-5.6,4.5-9.2c0.2-3.6-0.9-7-3.3-9.7C176.4,138.4,172.8,136.7,168.9,136.7
					L168.9,136.7z"/>
			</g>
		</g>
		<g>
			<g>
				<path class="st1" d="M161.9,134.4c-0.1,0-0.2,0-0.4,0c-0.8-0.1-1.6-0.5-2.2-1.1l-7.5-7.1c-0.6-0.6-1.1-1.4-1.2-2.1
					c-0.2-0.9,0.1-1.7,0.6-2.3l4.5-4.8c2.5-2.7,7.4-2.2,10.9,1.1c3.5,3.3,4.3,8.1,1.7,10.8l-4.5,4.8
					C163.3,134.1,162.6,134.4,161.9,134.4z M160,117.2c-1.1,0-2.1,0.4-2.8,1.1l-4.5,4.8c-0.2,0.2-0.1,0.5-0.1,0.6
					c0.1,0.4,0.3,0.7,0.6,1l7.5,7.1c0.3,0.3,0.7,0.5,1.1,0.5c0.1,0,0.4,0,0.6-0.1l4.5-4.8c1.8-1.9,1-5.4-1.7-8l0,0
					C163.6,118,161.7,117.2,160,117.2z"/>
			</g>
		</g>
		<g>
			<g>
				<path class="st1" d="M161.2,166.5c-0.9,0-1.9-0.5-2.6-1.3l-6.4-7.3c-1.2-1.4-1.3-3.3-0.1-4.3l4.7-4.1c1.3-1.1,3.1-1.5,5.1-1.1
					c1.9,0.4,3.6,1.5,5,3.1v0c1.4,1.6,2.3,3.5,2.4,5.4c0.2,2-0.5,3.7-1.8,4.9l-4.7,4.1C162.3,166.3,161.7,166.5,161.2,166.5z
					 M160.2,150.3c-0.9,0-1.7,0.3-2.3,0.8l-4.7,4.1c-0.2,0.2-0.2,0.9,0.3,1.5l6.4,7.3c0.5,0.6,1.2,0.7,1.4,0.5l4.7-4.1
					c0.8-0.7,1.2-1.9,1.1-3.2c-0.1-1.5-0.8-3-1.9-4.3v0c-1.1-1.3-2.5-2.2-4-2.5C160.9,150.3,160.6,150.3,160.2,150.3z"/>
			</g>
		</g>
		<g>
			<g>
				<path class="st1" d="M164.7,193.7c-0.8,0-1.7-0.4-2.3-1.1l-5.7-6.2c-0.5-0.6-0.8-1.2-0.9-1.9c-0.1-0.8,0.2-1.5,0.7-2l4-3.6
					c2.3-2.1,6.3-1.4,9,1.5c2.7,2.9,3.1,7,0.8,9.1l-4,3.6C165.8,193.5,165.3,193.7,164.7,193.7z M163.7,179.6
					c-0.8,0-1.4,0.2-1.9,0.7l-4,3.6c0,0-0.1,0.2-0.1,0.3c0,0.3,0.2,0.5,0.4,0.8l5.7,6.2c0.4,0.5,0.9,0.5,1.1,0.4l4-3.6
					c1.4-1.3,1-4.2-0.9-6.3C166.7,180.4,165.1,179.6,163.7,179.6z"/>
			</g>
		</g>
		<g>
			<path class="st1" d="M45.7,107h-4.7c-1.3,0-2.4-1-2.4-2.3V88.9c0-1.5,1.3-2.7,2.8-2.7H43c4.5,0,8.1,3.4,8.1,7.6v8.1
				C51.1,104.7,48.6,107,45.7,107z M41.3,88.2c-0.4,0-0.8,0.3-0.8,0.7v15.8c0,0.2,0.2,0.3,0.4,0.3h4.7c1.9,0,3.4-1.4,3.4-3.1v-8.1
				c0-3.1-2.7-5.6-6.1-5.6H41.3z"/>
		</g>
		<g>
			<g>
				<path class="st2" d="M174.5,151c-0.2,0-0.4-0.1-0.5-0.2l-4.4-4.9c-0.2-0.3-0.2-0.7,0.1-0.9c0.3-0.2,0.7-0.2,0.9,0.1l4.4,4.9
					c0.2,0.3,0.2,0.7-0.1,0.9C174.8,150.9,174.7,151,174.5,151z"/>
				<path class="st1" d="M174.5,151.3c-0.3,0-0.6-0.1-0.7-0.3l-4.4-4.9c-0.4-0.4-0.3-1,0.1-1.4c0.2-0.2,0.5-0.3,0.7-0.3
					c0.3,0,0.5,0.1,0.7,0.3l4.4,4.9c0.4,0.4,0.3,1-0.1,1.4C175,151.2,174.8,151.3,174.5,151.3z M170.1,145.1c-0.1,0-0.2,0-0.2,0.1
					c-0.1,0.1-0.1,0.3,0,0.5l4.4,4.9c0.1,0.1,0.3,0.1,0.5,0c0.1-0.1,0.1-0.3,0-0.5l-4.4-4.9C170.3,145.1,170.2,145.1,170.1,145.1
					C170.1,145.1,170.1,145.1,170.1,145.1z"/>
			</g>
		</g>
		<g>
			<path class="st5" d="M138.2,19.1c-1.2,0-2.2-1-2.2-2.2c0-1.2,1-2.2,2.2-2.2c1.2,0,2.2,1,2.2,2.2
				C140.4,18.1,139.4,19.1,138.2,19.1z"/>
			<path class="st1" d="M138.2,15.5c0.8,0,1.4,0.6,1.4,1.4c0,0.8-0.6,1.4-1.4,1.4s-1.4-0.6-1.4-1.4
				C136.8,16.2,137.4,15.5,138.2,15.5L138.2,15.5z M138.2,13.9c-1.7,0-3.1,1.4-3.1,3.1c0,1.7,1.4,3.1,3.1,3.1s3.1-1.4,3.1-3.1
				C141.2,15.2,139.9,13.9,138.2,13.9L138.2,13.9z"/>
		</g>
		<g>
			<g>
				<path class="st2" d="M176.7,147.4c-0.2,0-0.4-0.1-0.5-0.2l-2.7-3c-0.2-0.3-0.2-0.7,0-0.9c0.3-0.2,0.7-0.2,0.9,0l2.7,3
					c0.2,0.3,0.2,0.7,0,0.9C177,147.3,176.9,147.4,176.7,147.4z"/>
				<path class="st1" d="M176.7,147.7c-0.3,0-0.5-0.1-0.7-0.3l-2.7-3c-0.4-0.4-0.3-1,0.1-1.4c0.4-0.4,1-0.3,1.4,0.1l2.7,3
					c0.4,0.4,0.3,1-0.1,1.4C177.2,147.6,177,147.7,176.7,147.7z M174,143.4c-0.1,0-0.2,0-0.2,0.1c-0.1,0.1-0.1,0.3,0,0.5l2.7,3
					c0.1,0.1,0.3,0.1,0.5,0c0.1-0.1,0.1-0.3,0-0.5l-2.7-3C174.2,143.5,174.1,143.4,174,143.4z"/>
			</g>
		</g>
		<g>
			<g>
				<path class="st2" d="M174.5,179.2c-0.2,0-0.4-0.1-0.5-0.2l-2.3-2.5c-0.2-0.3-0.2-0.7,0-0.9c0.3-0.2,0.7-0.2,0.9,0l2.3,2.5
					c0.2,0.3,0.2,0.7,0,0.9C174.8,179.1,174.6,179.2,174.5,179.2z"/>
				<path class="st1" d="M174.5,179.5c-0.3,0-0.5-0.1-0.7-0.3l-2.3-2.5c-0.4-0.4-0.4-1,0-1.4c0.4-0.4,1-0.4,1.4,0l2.3,2.5
					c0.4,0.4,0.4,1,0,1.4C175,179.4,174.7,179.5,174.5,179.5z M172.2,175.7c-0.1,0-0.2,0-0.2,0.1c-0.1,0.1-0.1,0.3,0,0.5l2.3,2.5
					c0.1,0.1,0.3,0.1,0.5,0c0.1-0.1,0.1-0.3,0-0.5l-2.3-2.5C172.3,175.8,172.3,175.7,172.2,175.7z"/>
			</g>
		</g>
		<g>
			<g>
				<path class="st2" d="M176.7,176.1c-0.2,0-0.4-0.1-0.5-0.2l-1.4-1.5c-0.3-0.3-0.2-0.7,0-0.9c0.3-0.3,0.7-0.2,0.9,0l1.4,1.5
					c0.3,0.3,0.2,0.7,0,0.9C177.1,176.1,176.9,176.1,176.7,176.1z"/>
				<path class="st1" d="M176.7,176.5c-0.3,0-0.5-0.1-0.7-0.3l-1.4-1.5c-0.2-0.2-0.3-0.4-0.3-0.7c0-0.3,0.1-0.5,0.3-0.7
					c0.2-0.2,0.5-0.3,0.7-0.3c0.3,0,0.5,0.1,0.7,0.3l1.4,1.5c0.2,0.2,0.3,0.4,0.3,0.7c0,0.3-0.1,0.5-0.3,0.7
					C177.2,176.4,177,176.5,176.7,176.5z M175.3,173.7c-0.1,0-0.2,0-0.2,0.1c-0.1,0.1-0.1,0.1-0.1,0.2c0,0.1,0,0.2,0.1,0.2l1.4,1.5
					c0.1,0.1,0.3,0.1,0.5,0c0.1-0.1,0.1-0.1,0.1-0.2c0-0.1,0-0.2-0.1-0.2l-1.4-1.5C175.5,173.7,175.4,173.7,175.3,173.7
					C175.3,173.7,175.3,173.7,175.3,173.7z"/>
			</g>
		</g>
		<g>
			<g>
				<path class="st2" d="M171.3,118.2c-0.2,0-0.3-0.1-0.4-0.2l-3.6-3.5c-0.3-0.3-0.3-0.7,0-0.9c0.3-0.3,0.7-0.3,0.9,0l3.6,3.5
					c0.3,0.3,0.3,0.7,0,0.9C171.7,118.1,171.5,118.2,171.3,118.2z"/>
				<path class="st1" d="M171.3,118.5C171.3,118.5,171.3,118.5,171.3,118.5c-0.3,0-0.5-0.1-0.7-0.3l-3.6-3.5
					c-0.2-0.2-0.3-0.4-0.3-0.7c0-0.3,0.1-0.5,0.3-0.7c0.4-0.4,1-0.4,1.4,0l3.6,3.5c0.2,0.2,0.3,0.4,0.3,0.7c0,0.3-0.1,0.5-0.3,0.7
					C171.8,118.4,171.6,118.5,171.3,118.5z M167.7,113.7c-0.1,0-0.2,0-0.2,0.1c-0.1,0.1-0.1,0.1-0.1,0.2c0,0.1,0,0.2,0.1,0.2
					l3.6,3.5c0.1,0.1,0.1,0.1,0.2,0.1h0c0.1,0,0.2,0,0.2-0.1c0.1-0.1,0.1-0.1,0.1-0.2c0-0.1,0-0.2-0.1-0.2l-3.6-3.5
					C167.8,113.7,167.7,113.7,167.7,113.7z"/>
			</g>
		</g>
		<g>
			<g>
				<path class="st2" d="M173.5,114.6c-0.2,0-0.3-0.1-0.4-0.2l-2.2-2.1c-0.3-0.3-0.3-0.7,0-0.9c0.3-0.3,0.7-0.3,0.9,0l2.2,2.1
					c0.3,0.3,0.3,0.7,0,0.9C173.8,114.5,173.7,114.6,173.5,114.6z"/>
				<path class="st1" d="M173.5,114.9C173.5,114.9,173.5,114.9,173.5,114.9c-0.3,0-0.5-0.1-0.7-0.3l-2.2-2.1
					c-0.2-0.2-0.3-0.4-0.3-0.7c0-0.3,0.1-0.5,0.3-0.7c0.2-0.2,0.4-0.3,0.7-0.3c0.3,0,0.5,0.1,0.7,0.3l2.2,2.1c0.4,0.4,0.4,1,0,1.4
					C174,114.8,173.8,114.9,173.5,114.9z M171.3,111.5C171.3,111.5,171.3,111.5,171.3,111.5c-0.1,0-0.2,0-0.2,0.1
					c-0.1,0.1-0.1,0.1-0.1,0.2c0,0.1,0,0.2,0.1,0.2l2.2,2.1c0.1,0.1,0.1,0.1,0.2,0.1h0c0.1,0,0.2,0,0.3-0.1c0.1-0.1,0.1-0.3,0-0.5
					l-2.2-2.1C171.4,111.5,171.4,111.5,171.3,111.5z"/>
			</g>
		</g>
		<g>
			<g>
				<path class="st2" d="M40.2,112.9c-0.4,0-0.7-0.3-0.7-0.7c0-0.4,0.3-0.7,0.7-0.7l5.1-0.1c0.4,0,0.7,0.3,0.7,0.7
					c0,0.4-0.3,0.7-0.7,0.7L40.2,112.9C40.2,112.9,40.2,112.9,40.2,112.9z"/>
				<path class="st2" d="M40.2,113.3L40.2,113.3c-0.6,0-1-0.4-1-1c0-0.3,0.1-0.5,0.3-0.7c0.2-0.2,0.4-0.3,0.7-0.3l5.1-0.1
					c0,0,0,0,0,0c0.6,0,1,0.4,1,1c0,0.5-0.4,1-1,1L40.2,113.3z M45.2,111.9C45.2,111.9,45.2,111.9,45.2,111.9l-5.1,0.1
					c-0.1,0-0.2,0-0.2,0.1c-0.1,0.1-0.1,0.1-0.1,0.2c0,0.2,0.2,0.3,0.3,0.3h0l5.1-0.1c0.1,0,0.2,0,0.2-0.1c0.1-0.1,0.1-0.1,0.1-0.2
					C45.6,112,45.4,111.9,45.2,111.9z"/>
			</g>
		</g>
		<g>
			<g>
				<path class="st2" d="M40.5,116.7c-0.4,0-0.7-0.3-0.7-0.6c0-0.4,0.3-0.7,0.6-0.7l3.1-0.1c0.4,0,0.7,0.3,0.7,0.6
					c0,0.4-0.3,0.7-0.6,0.7L40.5,116.7C40.5,116.7,40.5,116.7,40.5,116.7z"/>
				<path class="st2" d="M40.5,117c-0.5,0-1-0.4-1-1c0-0.3,0.1-0.5,0.3-0.7c0.2-0.2,0.4-0.3,0.7-0.3l3.1-0.1c0.3,0,0.5,0.1,0.7,0.3
					c0.2,0.2,0.3,0.4,0.3,0.7c0,0.3-0.1,0.5-0.3,0.7c-0.2,0.2-0.4,0.3-0.7,0.3L40.5,117z M43.6,115.6
					C43.6,115.6,43.6,115.6,43.6,115.6l-3.1,0.1c-0.1,0-0.2,0-0.2,0.1c-0.1,0.1-0.1,0.1-0.1,0.2c0,0.2,0.2,0.3,0.3,0.3v0.3l0-0.3
					l3.1-0.1c0.1,0,0.2,0,0.2-0.1c0.1-0.1,0.1-0.1,0.1-0.2c0-0.1,0-0.2-0.1-0.2C43.8,115.7,43.7,115.6,43.6,115.6z"/>
			</g>
		</g>
		<g>
			<path class="st1" d="M63.8,108.2c-0.3,5.3-0.9,9.5-3.3,13.1c-0.3,0.5-1,0.6-1.4,0.2l0,0c-0.4-0.3-0.5-0.9-0.2-1.3
				c2.2-3.3,2.7-7.1,3-12.1c0.2-3.5,0.2-9.1-1.9-12.9c-0.2-0.5-0.2-0.8,0.3-1.1c0.4-0.3,1.1-0.5,1.3,0C64,98.7,64,104.4,63.8,108.2z
				"/>
		</g>
		<g>
			<path class="st1" d="M121.9,17.9H98.7c-0.6,0-1-0.4-1-1c0-0.5,0.4-1,1-1h23.2c0.6,0,1,0.4,1,1C122.9,17.5,122.5,17.9,121.9,17.9z
				"/>
		</g>
	</g>
	<g>
		<path class="st6" d="M141.6,122.5H78.4c-0.6,0-1.1-0.5-1.1-1.1V59.4c0-0.6,0.5-1.1,1.1-1.1h63.2c0.6,0,1.1,0.5,1.1,1.1v62.1
			C142.7,122.1,142.2,122.5,141.6,122.5z"/>
		<g>
			<path class="st1" d="M136.7,101.8c0.1,0,0.3,0.1,0.3,0.2v2c0,0.1-0.1,0.2-0.3,0.2h-2.1c-0.1,0-0.3-0.1-0.3-0.2v-2
				c0-0.1,0.1-0.2,0.3-0.2H136.7z"/>
			<path class="st1" d="M136.7,79.1c0.1,0,0.3-0.1,0.3-0.2v-2c0-0.1-0.1-0.2-0.3-0.2h-2.1c-0.1,0-0.4,0-0.5,0h-2.1
				c-0.1,0-0.4,0-0.5,0h-2.1c-0.1,0-0.3,0.1-0.3,0.2v2c0,0.1,0.1,0.2,0.3,0.2h2.1c0.1,0,0.3,0.1,0.3,0.2v2c0,0.1,0,0.4,0,0.5v2
				c0,0.1,0.1,0.2,0.3,0.2h2.1c0.1,0,0.3,0.1,0.3,0.2v2c0,0.1,0.1,0.2,0.3,0.2h2.1c0.1,0,0.3-0.1,0.3-0.2v-2c0-0.1,0-0.4,0-0.5v-2
				c0-0.1-0.1-0.2-0.3-0.2h-2.1c-0.1,0-0.3-0.1-0.3-0.2v-2c0-0.1,0.1-0.2,0.3-0.2H136.7z"/>
			<path class="st1" d="M132.1,104.3c-0.1,0-0.4,0-0.5,0h-2.1c-0.1,0-0.4,0-0.5,0h-2.1c-0.1,0-0.3,0.1-0.3,0.2v2
				c0,0.1,0.1,0.2,0.3,0.2h2.1c0.1,0,0.4,0,0.5,0h2.1c0.1,0,0.4,0,0.5,0h2.1c0.1,0,0.3-0.1,0.3-0.2v-2c0-0.1-0.1-0.2-0.3-0.2H132.1z
				"/>
			<path class="st1" d="M134.6,89.2c-0.1,0-0.3-0.1-0.3-0.2v-2c0-0.1-0.1-0.2-0.3-0.2h-2.1c-0.1,0-0.3,0.1-0.3,0.2v2
				c0,0.1-0.1,0.2-0.3,0.2h-2.1c-0.1,0-0.4,0-0.5,0h-2.1c-0.1,0-0.3,0.1-0.3,0.2v2c0,0.1,0.1,0.2,0.3,0.2h2.1c0.1,0,0.4,0,0.5,0h2.1
				c0.1,0,0.4,0,0.5,0h2.1c0.1,0,0.4,0,0.5,0h2.1c0.1,0,0.3-0.1,0.3-0.2v-2c0-0.1-0.1-0.2-0.3-0.2H134.6z"/>
			<path class="st1" d="M129,84.1c0.1,0,0.3,0.1,0.3,0.2v2c0,0.1-0.1,0.2-0.3,0.2h-2.1c-0.1,0-0.3-0.1-0.3-0.2v-2
				c0-0.1,0.1-0.2,0.3-0.2H129z"/>
			<path class="st1" d="M129,79.1c0.1,0,0.3,0.1,0.3,0.2v2c0,0.1-0.1,0.2-0.3,0.2h-2.1c-0.1,0-0.3-0.1-0.3-0.2v-2
				c0-0.1,0.1-0.2,0.3-0.2H129z"/>
			<path class="st1" d="M124.4,99.2c-0.1,0-0.3,0.1-0.3,0.2v2c0,0.1,0,0.4,0,0.5v2c0,0.1,0.1,0.2,0.3,0.2h2.1c0.1,0,0.3-0.1,0.3-0.2
				v-2c0-0.1,0-0.4,0-0.5v-2c0-0.1-0.1-0.2-0.3-0.2H124.4z"/>
			<path class="st1" d="M134.6,111.9c-0.1,0-0.3-0.1-0.3-0.2v-2c0-0.1-0.1-0.2-0.3-0.2h-2.1c-0.1,0-0.3,0.1-0.3,0.2v2
				c0,0.1-0.1,0.2-0.3,0.2h-2.1c-0.1,0-0.4,0-0.5,0h-2.1c-0.1,0-0.3-0.1-0.3-0.2v-2c0-0.1,0-0.4,0-0.5v-2c0-0.1-0.1-0.2-0.3-0.2
				h-2.1c-0.1,0-0.3,0.1-0.3,0.2v2c0,0.1,0,0.4,0,0.5v2c0,0.1-0.1,0.2-0.3,0.2h-2.1c-0.1,0-0.3,0.1-0.3,0.2v2c0,0.1,0.1,0.2,0.3,0.2
				h2.1c0.1,0,0.4,0,0.5,0h2.1c0.1,0,0.3,0.1,0.3,0.2v2c0,0.1,0.1,0.2,0.3,0.2h2.1c0.1,0,0.3-0.1,0.3-0.2v-2c0-0.1,0.1-0.2,0.3-0.2
				h2.1c0.1,0,0.3,0.1,0.3,0.2v2c0,0.1,0.1,0.2,0.3,0.2h2.1c0.1,0,0.3-0.1,0.3-0.2v-2c0-0.1,0.1-0.2,0.3-0.2h2.1
				c0.1,0,0.3-0.1,0.3-0.2v-2c0-0.1-0.1-0.2-0.3-0.2H134.6z"/>
			<path class="st1" d="M123.9,104.3c0.1,0,0.3,0.1,0.3,0.2v2c0,0.1-0.1,0.2-0.3,0.2h-2.1c-0.1,0-0.3-0.1-0.3-0.2v-2
				c0-0.1,0.1-0.2,0.3-0.2H123.9z"/>
			<path class="st1" d="M123.9,84.1c0.1,0,0.3,0.1,0.3,0.2v2c0,0.1-0.1,0.2-0.3,0.2h-2.1c-0.1,0-0.3-0.1-0.3-0.2v-2
				c0-0.1,0.1-0.2,0.3-0.2H123.9z"/>
			<path class="st1" d="M124.4,76.5c-0.1,0-0.4,0-0.5,0h-2.1c-0.1,0-0.3,0.1-0.3,0.2v2c0,0.1,0.1,0.2,0.3,0.2h2.1c0.1,0,0.4,0,0.5,0
				h2.1c0.1,0,0.3-0.1,0.3-0.2v-2c0-0.1-0.1-0.2-0.3-0.2H124.4z"/>
			<path class="st1" d="M123.9,71.5c0.1,0,0.3,0.1,0.3,0.2v2c0,0.1-0.1,0.2-0.3,0.2h-2.1c-0.1,0-0.3-0.1-0.3-0.2v-2
				c0-0.1,0.1-0.2,0.3-0.2H123.9z"/>
			<path class="st1" d="M121.3,89.2c0.1,0,0.3,0.1,0.3,0.2v2c0,0.1-0.1,0.2-0.3,0.2h-2.1c-0.1,0-0.3-0.1-0.3-0.2v-2
				c0-0.1,0.1-0.2,0.3-0.2H121.3z"/>
			<path class="st1" d="M118.7,111.9c0.1,0,0.3,0.1,0.3,0.2v2c0,0.1-0.1,0.2-0.3,0.2h-2.1c-0.1,0-0.3-0.1-0.3-0.2v-2
				c0-0.1,0.1-0.2,0.3-0.2H118.7z"/>
			<path class="st1" d="M118.7,106.8c0.1,0,0.3,0.1,0.3,0.2v2c0,0.1-0.1,0.2-0.3,0.2h-2.1c-0.1,0-0.3-0.1-0.3-0.2v-2
				c0-0.1,0.1-0.2,0.3-0.2H118.7z"/>
			<path class="st1" d="M119.2,99.2c-0.1,0-0.3,0.1-0.3,0.2v2c0,0.1-0.1,0.2-0.3,0.2h-2.1c-0.1,0-0.3,0.1-0.3,0.2v2
				c0,0.1,0.1,0.2,0.3,0.2h2.1c0.1,0,0.4,0,0.5,0h2.1c0.1,0,0.3-0.1,0.3-0.2v-2c0-0.1,0-0.4,0-0.5v-2c0-0.1-0.1-0.2-0.3-0.2H119.2z"
				/>
			<path class="st1" d="M119.2,63.9c-0.1,0-0.3,0.1-0.3,0.2v2c0,0.1-0.1,0.2-0.3,0.2h-2.1c-0.1,0-0.3,0.1-0.3,0.2v2
				c0,0.1,0.1,0.2,0.3,0.2h2.1c0.1,0,0.3,0.1,0.3,0.2v2c0,0.1,0.1,0.2,0.3,0.2h2.1c0.1,0,0.3-0.1,0.3-0.2v-2c0-0.1,0-0.4,0-0.5v-2
				c0-0.1,0-0.4,0-0.5v-2c0-0.1-0.1-0.2-0.3-0.2H119.2z"/>
			<path class="st1" d="M113.6,114.4c0.1,0,0.3,0.1,0.3,0.2v2c0,0.1-0.1,0.2-0.3,0.2h-2.1c-0.1,0-0.3-0.1-0.3-0.2v-2
				c0-0.1,0.1-0.2,0.3-0.2H113.6z"/>
			<path class="st1" d="M114.1,104.3c-0.1,0-0.4,0-0.5,0h-2.1c-0.1,0-0.3,0.1-0.3,0.2v2c0,0.1,0.1,0.2,0.3,0.2h2.1
				c0.1,0,0.4,0,0.5,0h2.1c0.1,0,0.3-0.1,0.3-0.2v-2c0-0.1-0.1-0.2-0.3-0.2H114.1z"/>
			<path class="st1" d="M119.2,81.6c-0.1,0-0.4,0-0.5,0h-2.1c-0.1,0-0.4,0-0.5,0h-2.1c-0.1,0-0.4,0-0.5,0h-2.1
				c-0.1,0-0.3,0.1-0.3,0.2v2c0,0.1,0,0.4,0,0.5v2c0,0.1,0.1,0.2,0.3,0.2h2.1c0.1,0,0.3-0.1,0.3-0.2v-2c0-0.1,0.1-0.2,0.3-0.2h2.1
				c0.1,0,0.4,0,0.5,0h2.1c0.1,0,0.4,0,0.5,0h2.1c0.1,0,0.3-0.1,0.3-0.2v-2c0-0.1-0.1-0.2-0.3-0.2H119.2z"/>
			<path class="st1" d="M132.1,94.2c-0.1,0-0.4,0-0.5,0h-2.1c-0.1,0-0.4,0-0.5,0h-2.1c-0.1,0-0.3-0.1-0.3-0.2v-2
				c0-0.1-0.1-0.2-0.3-0.2h-2.1c-0.1,0-0.3,0.1-0.3,0.2v2c0,0.1-0.1,0.2-0.3,0.2h-2.1c-0.1,0-0.4,0-0.5,0h-2.1c-0.1,0-0.4,0-0.5,0
				h-2.1c-0.1,0-0.3-0.1-0.3-0.2v-2c0-0.1,0-0.4,0-0.5v-2c0-0.1,0-0.4,0-0.5v-2c0-0.1-0.1-0.2-0.3-0.2h-2.1c-0.1,0-0.3,0.1-0.3,0.2
				v2c0,0.1-0.1,0.2-0.3,0.2h-2.1c-0.1,0-0.4,0-0.5,0H109c-0.1,0-0.3,0.1-0.3,0.2v2c0,0.1,0.1,0.2,0.3,0.2h2.1c0.1,0,0.4,0,0.5,0
				h2.1c0.1,0,0.3,0.1,0.3,0.2v2c0,0.1-0.1,0.2-0.3,0.2h-2.1c-0.1,0-0.3,0.1-0.3,0.2v2c0,0.1,0.1,0.2,0.3,0.2h2.1
				c0.1,0,0.3,0.1,0.3,0.2v2c0,0.1,0.1,0.2,0.3,0.2h2.1c0.1,0,0.4,0,0.5,0h2.1c0.1,0,0.3-0.1,0.3-0.2v-2c0-0.1,0.1-0.2,0.3-0.2h2.1
				c0.1,0,0.4,0,0.5,0h2.1c0.1,0,0.4,0,0.5,0h2.1c0.1,0,0.4,0,0.5,0h2.1c0.1,0,0.3,0.1,0.3,0.2v2c0,0.1,0.1,0.2,0.3,0.2h2.1
				c0.1,0,0.3,0.1,0.3,0.2v2c0,0.1,0.1,0.2,0.3,0.2h2.1c0.1,0,0.3-0.1,0.3-0.2v-2c0-0.1,0-0.4,0-0.5v-2c0-0.1,0-0.4,0-0.5v-2
				c0-0.1-0.1-0.2-0.3-0.2H132.1z"/>
			<path class="st1" d="M114.1,63.9c-0.1,0-0.4,0-0.5,0h-2.1c-0.1,0-0.4,0-0.5,0H109c-0.1,0-0.3,0.1-0.3,0.2v2
				c0,0.1,0.1,0.2,0.3,0.2h2.1c0.1,0,0.4,0,0.5,0h2.1c0.1,0,0.4,0,0.5,0h2.1c0.1,0,0.3-0.1,0.3-0.2v-2c0-0.1-0.1-0.2-0.3-0.2H114.1z
				"/>
			<path class="st1" d="M119.2,74c-0.1,0-0.4,0-0.5,0h-2.1c-0.1,0-0.4,0-0.5,0h-2.1c-0.1,0-0.3-0.1-0.3-0.2v-2c0-0.1,0-0.4,0-0.5v-2
				c0-0.1-0.1-0.2-0.3-0.2h-2.1c-0.1,0-0.3,0.1-0.3,0.2v2c0,0.1,0,0.4,0,0.5v2c0,0.1-0.1,0.2-0.3,0.2H109c-0.1,0-0.3,0.1-0.3,0.2v2
				c0,0.1-0.1,0.2-0.3,0.2h-2.1c-0.1,0-0.3,0.1-0.3,0.2v2c0,0.1,0.1,0.2,0.3,0.2h2.1c0.1,0,0.3,0.1,0.3,0.2v2c0,0.1,0.1,0.2,0.3,0.2
				h2.1c0.1,0,0.3-0.1,0.3-0.2v-2c0-0.1,0-0.4,0-0.5v-2c0-0.1,0.1-0.2,0.3-0.2h2.1c0.1,0,0.3,0.1,0.3,0.2v2c0,0.1,0.1,0.2,0.3,0.2
				h2.1c0.1,0,0.4,0,0.5,0h2.1c0.1,0,0.3-0.1,0.3-0.2v-2c0-0.1,0.1-0.2,0.3-0.2h2.1c0.1,0,0.3-0.1,0.3-0.2v-2c0-0.1-0.1-0.2-0.3-0.2
				H119.2z"/>
			<path class="st1" d="M108.5,71.5c0.1,0,0.3,0.1,0.3,0.2v2c0,0.1-0.1,0.2-0.3,0.2h-2.1c-0.1,0-0.3-0.1-0.3-0.2v-2
				c0-0.1,0.1-0.2,0.3-0.2H108.5z"/>
			<path class="st1" d="M108.5,66.5c0.1,0,0.3,0.1,0.3,0.2v2c0,0.1-0.1,0.2-0.3,0.2h-2.1c-0.1,0-0.3-0.1-0.3-0.2v-2
				c0-0.1,0.1-0.2,0.3-0.2H108.5z"/>
			<path class="st1" d="M109,101.8c-0.1,0-0.4,0-0.5,0h-2.1c-0.1,0-0.4,0-0.5,0h-2.1c-0.1,0-0.3,0.1-0.3,0.2v2
				c0,0.1,0.1,0.2,0.3,0.2h2.1c0.1,0,0.4,0,0.5,0h2.1c0.1,0,0.4,0,0.5,0h2.1c0.1,0,0.3-0.1,0.3-0.2v-2c0-0.1-0.1-0.2-0.3-0.2H109z"
				/>
			<path class="st1" d="M105.9,91.7c0.1,0,0.3,0.1,0.3,0.2v2c0,0.1-0.1,0.2-0.3,0.2h-2.1c-0.1,0-0.3-0.1-0.3-0.2v-2
				c0-0.1,0.1-0.2,0.3-0.2H105.9z"/>
			<path class="st1" d="M106.4,81.6c-0.1,0-0.4,0-0.5,0h-2.1c-0.1,0-0.3,0.1-0.3,0.2v2c0,0.1,0.1,0.2,0.3,0.2h2.1c0.1,0,0.4,0,0.5,0
				h2.1c0.1,0,0.3-0.1,0.3-0.2v-2c0-0.1-0.1-0.2-0.3-0.2H106.4z"/>
			<path class="st1" d="M109,106.8c-0.1,0-0.3,0.1-0.3,0.2v2c0,0.1,0,0.4,0,0.5v2c0,0.1-0.1,0.2-0.3,0.2h-2.1
				c-0.1,0-0.3-0.1-0.3-0.2v-2c0-0.1,0-0.4,0-0.5v-2c0-0.1-0.1-0.2-0.3-0.2h-2.1c-0.1,0-0.3,0.1-0.3,0.2v2c0,0.1,0,0.4,0,0.5v2
				c0,0.1-0.1,0.2-0.3,0.2h-2.1c-0.1,0-0.3,0.1-0.3,0.2v2c0,0.1,0.1,0.2,0.3,0.2h2.1c0.1,0,0.3,0.1,0.3,0.2v2c0,0.1,0.1,0.2,0.3,0.2
				h2.1c0.1,0,0.3-0.1,0.3-0.2v-2c0-0.1,0.1-0.2,0.3-0.2h2.1c0.1,0,0.3,0,0.4,0c0.1,0,0.2,0,0.4,0h1.8c0.1,0,0.3-0.1,0.3-0.2v-2
				c0-0.1,0-0.4,0-0.5v-2c0-0.1,0-0.4,0-0.5v-2c0-0.1-0.1-0.2-0.3-0.2H109z"/>
			<path class="st1" d="M106.4,96.7c-0.1,0-0.4,0-0.5,0h-2.1c-0.1,0-0.3-0.1-0.3-0.2v-2c0-0.1-0.1-0.2-0.3-0.2h-2.1
				c-0.1,0-0.3,0.1-0.3,0.2v2c0,0.1,0,0.4,0,0.5v2c0,0.1,0.1,0.2,0.3,0.2h2.1c0.1,0,0.4,0,0.5,0h2.1c0.1,0,0.4,0,0.5,0h2.1
				c0.1,0,0.3-0.1,0.3-0.2v-2c0-0.1-0.1-0.2-0.3-0.2H106.4z"/>
			<path class="st2" d="M103.8,86.6c-0.1,0-0.4,0-0.5,0h-2.1c-0.1,0-0.3,0.1-0.3,0.2v2c0,0.1,0.1,0.2,0.3,0.2h2.1c0.1,0,0.4,0,0.5,0
				h2.1c0.1,0,0.3-0.1,0.3-0.2v-2c0-0.1-0.1-0.2-0.3-0.2H103.8z"/>
			<path class="st1" d="M103.8,63.9c-0.1,0-0.4,0-0.5,0h-2.1c-0.1,0-0.3,0.1-0.3,0.2v2c0,0.1,0.1,0.2,0.3,0.2h2.1c0.1,0,0.4,0,0.5,0
				h2.1c0.1,0,0.3-0.1,0.3-0.2v-2c0-0.1-0.1-0.2-0.3-0.2H103.8z"/>
			<path class="st1" d="M100.8,66.5c0.1,0,0.3,0.1,0.3,0.2v2c0,0.1-0.1,0.2-0.3,0.2h-2.1c-0.1,0-0.3-0.1-0.3-0.2v-2
				c0-0.1,0.1-0.2,0.3-0.2H100.8z"/>
			<path class="st1" d="M98.7,109.3c-0.1,0-0.4,0-0.5,0h-2.1c-0.1,0-0.3,0.1-0.3,0.2v2c0,0.1,0,0.4,0,0.5v2c0,0.1,0.1,0.2,0.3,0.2
				h2.1c0.1,0,0.3-0.1,0.3-0.2v-2c0-0.1,0.1-0.2,0.3-0.2h2.1c0.1,0,0.3-0.1,0.3-0.2v-2c0-0.1-0.1-0.2-0.3-0.2H98.7z"/>
			<path class="st1" d="M96.1,69c-0.1,0-0.3,0.1-0.3,0.2v2c0,0.1,0,0.4,0,0.5v2c0,0.1,0.1,0.2,0.3,0.2h2.1c0.1,0,0.3-0.1,0.3-0.2v-2
				c0-0.1,0-0.4,0-0.5v-2c0-0.1-0.1-0.2-0.3-0.2H96.1z"/>
			<path class="st1" d="M98.7,101.8c-0.1,0-0.4,0-0.5,0h-2.1c-0.1,0-0.4,0-0.5,0h-2.1c-0.1,0-0.3,0.1-0.3,0.2v2
				c0,0.1,0.1,0.2,0.3,0.2h2.1c0.1,0,0.3,0.1,0.3,0.2v2c0,0.1,0.1,0.2,0.3,0.2h2.1c0.1,0,0.3-0.1,0.3-0.2v-2c0-0.1,0.1-0.2,0.3-0.2
				h2.1c0.1,0,0.3-0.1,0.3-0.2v-2c0-0.1-0.1-0.2-0.3-0.2H98.7z"/>
			<path class="st1" d="M101.3,69c-0.1,0-0.3,0.1-0.3,0.2v2c0,0.1,0,0.4,0,0.5v2c0,0.1-0.1,0.2-0.3,0.2h-2.1c-0.1,0-0.3,0.1-0.3,0.2
				v2c0,0.1-0.1,0.2-0.3,0.2h-2.1c-0.1,0-0.4,0-0.5,0h-2.1c-0.1,0-0.3,0.1-0.3,0.2v2c0,0.1,0.1,0.2,0.3,0.2h2.1
				c0.1,0,0.3,0.1,0.3,0.2v2c0,0.1,0.1,0.2,0.3,0.2h2.1c0.1,0,0.3,0.1,0.3,0.2v2c0,0.1,0,0.4,0,0.5v2c0,0.1,0.1,0.2,0.3,0.2h2.1
				c0.1,0,0.3-0.1,0.3-0.2v-2c0-0.1,0-0.4,0-0.5v-2c0-0.1,0.1-0.2,0.3-0.2h2.1c0.1,0,0.3-0.1,0.3-0.2v-2c0-0.1-0.1-0.2-0.3-0.2h-2.1
				c-0.1,0-0.3-0.1-0.3-0.2v-2c0-0.1,0.1-0.2,0.3-0.2h2.1c0.1,0,0.3-0.1,0.3-0.2v-2c0-0.1,0-0.4,0-0.5v-2c0-0.1,0-0.4,0-0.5v-2
				c0-0.1-0.1-0.2-0.3-0.2H101.3z"/>
			<path class="st1" d="M91,84.1c-0.1,0-0.3,0.1-0.3,0.2v2c0,0.1,0,0.4,0,0.5v2c0,0.1,0.1,0.2,0.3,0.2h2.1c0.1,0,0.3-0.1,0.3-0.2v-2
				c0-0.1,0-0.4,0-0.5v-2c0-0.1-0.1-0.2-0.3-0.2H91z"/>
			<path class="st1" d="M93.1,79.1c0.1,0,0.3,0.1,0.3,0.2v2c0,0.1-0.1,0.2-0.3,0.2H91c-0.1,0-0.3-0.1-0.3-0.2v-2
				c0-0.1,0.1-0.2,0.3-0.2H93.1z"/>
			<path class="st1" d="M98.5,89.2c-0.1,0-0.4,0-0.5,0h-0.6c-0.1,0-0.3-0.1-0.3-0.2v-2c0-0.1,0-0.4,0-0.5v-2c0-0.1-0.1-0.2-0.3-0.2
				h-2.1c-0.1,0-0.3,0.1-0.3,0.2v2c0,0.1,0,0.4,0,0.5v2c0,0.1-0.1,0.2-0.3,0.2h-0.8c-0.1,0-0.3,0.1-0.3,0.2v2c0,0.1,0.1,0.2,0.3,0.2
				h1.7c0.1,0,0.3,0,0.4,0c0.1,0,0.2,0.1,0.2,0.2v2c0,0.1-0.1,0.2-0.3,0.2h-2.1c-0.1,0-0.3-0.1-0.3-0.2v-2c0-0.1-0.1-0.2-0.3-0.2H91
				c-0.1,0-0.3,0.1-0.3,0.2v2c0,0.1,0,0.4,0,0.5v2c0,0.1,0.1,0.2,0.3,0.2h2.1c0.1,0,0.4,0,0.5,0h2.1c0.1,0,0.3,0.1,0.3,0.2v2
				c0,0.1,0.1,0.2,0.3,0.2h2.1c0.1,0,0.3-0.1,0.3-0.2v-2c0-0.1,0-0.4,0-0.5v-2c0-0.1,0-0.4,0-0.5v-2c0-0.1,0.1-0.2,0.3-0.2h2.1
				c0.1,0,0.3-0.1,0.3-0.2v-2c0-0.1-0.1-0.2-0.3-0.2H98.5z"/>
			<path class="st1" d="M91,99.2c-0.1,0-0.4,0-0.5,0h-2.1c-0.1,0-0.3,0-0.3,0s-0.1,0-0.3,0h-2.1c-0.1,0-0.3,0.1-0.3,0.2v2
				c0,0.1,0,0.4,0,0.5v2c0,0.1,0.1,0.2,0.3,0.2h2.1c0.1,0,0.3-0.1,0.3-0.2v-2c0-0.1,0-0.2,0-0.2s0.1,0,0.3,0h2.1c0.1,0,0.4,0,0.5,0
				h2.1c0.1,0,0.3-0.1,0.3-0.2v-2c0-0.1-0.1-0.2-0.3-0.2H91z"/>
			<path class="st1" d="M88.5,89.2c-0.1,0-0.3-0.1-0.3-0.2v-2c0-0.1-0.1-0.2-0.3-0.2h-2.1c-0.1,0-0.3,0.1-0.3,0.2v2
				c0,0.1,0,0.4,0,0.5v2c0,0.1,0,0.4,0,0.5v2c0,0.1,0.1,0.2,0.3,0.2h2.1c0.1,0,0.3-0.1,0.3-0.2v-2c0-0.1,0.1-0.2,0.3-0.2h2.1
				c0.1,0,0.3-0.1,0.3-0.2v-2c0-0.1-0.1-0.2-0.3-0.2H88.5z"/>
			<path class="st1" d="M83.3,94.2c-0.1,0-0.3,0.1-0.3,0.2v2c0,0.1,0,0.4,0,0.5v2c0,0.1,0.1,0.2,0.3,0.2h2.1c0.1,0,0.3-0.1,0.3-0.2
				v-2c0-0.1,0-0.4,0-0.5v-2c0-0.1-0.1-0.2-0.3-0.2H83.3z"/>
			<path class="st1" d="M83.3,81.6c-0.1,0-0.3,0.1-0.3,0.2v2c0,0.1,0,0.4,0,0.5v2c0,0.1,0.1,0.2,0.3,0.2h2.1c0.1,0,0.3-0.1,0.3-0.2
				v-2c0-0.1,0-0.4,0-0.5v-2c0-0.1-0.1-0.2-0.3-0.2H83.3z"/>
			<path class="st1" d="M88.5,76.5c-0.1,0-0.3,0-0.3,0c0,0-0.2,0-0.3,0h-1.9c-0.1,0-0.3,0-0.3,0s-0.1,0-0.3,0h-2.1
				c-0.1,0-0.3,0.1-0.3,0.2v2c0,0.1,0.1,0.2,0.3,0.2h2.1c0.1,0,0.3,0,0.3,0s0,0.1,0,0.2v2c0,0.1,0.1,0.2,0.3,0.2h2.1
				c0.1,0,0.3-0.1,0.3-0.2v-2c0-0.1,0.1-0.2,0.3-0.2h2.1c0.1,0,0.3-0.1,0.3-0.2v-2c0-0.1-0.1-0.2-0.3-0.2H88.5z"/>
			<g>
				<path class="st1" d="M92.1,65.2V73h-7.9v-7.7H92.1L92.1,65.2z M92.6,64h-8.8c-0.4,0-0.8,0.3-0.8,0.8v8.7c0,0.4,0.3,0.8,0.8,0.8
					h8.8c0.4,0,0.8-0.3,0.8-0.8v-8.7C93.4,64.3,93.1,64,92.6,64L92.6,64z"/>
				<path class="st1" d="M90.6,71.9h-4.8c-0.2,0-0.4-0.2-0.4-0.4v-4.7c0-0.2,0.2-0.4,0.4-0.4h4.8c0.2,0,0.4,0.2,0.4,0.4v4.7
					C91,71.7,90.8,71.9,90.6,71.9z"/>
				<path class="st1" d="M135.7,65.2V73h-7.9v-7.7H135.7L135.7,65.2z M136.2,64h-8.8c-0.4,0-0.8,0.3-0.8,0.8v8.7
					c0,0.4,0.3,0.8,0.8,0.8h8.8c0.4,0,0.8-0.3,0.8-0.8v-8.7C137,64.3,136.6,64,136.2,64L136.2,64z"/>
				<path class="st1" d="M134.2,71.9h-4.8c-0.2,0-0.4-0.2-0.4-0.4v-4.7c0-0.2,0.2-0.4,0.4-0.4h4.8c0.2,0,0.4,0.2,0.4,0.4v4.7
					C134.6,71.7,134.4,71.9,134.2,71.9z"/>
				<path class="st1" d="M92.1,107.9v7.7h-7.9v-7.7H92.1L92.1,107.9z M92.6,106.6h-8.8c-0.4,0-0.8,0.3-0.8,0.8v8.7
					c0,0.4,0.3,0.8,0.8,0.8h8.8c0.4,0,0.8-0.3,0.8-0.8v-8.7C93.4,107,93.1,106.6,92.6,106.6L92.6,106.6z"/>
				<path class="st1" d="M90.6,114.5h-4.8c-0.2,0-0.4-0.2-0.4-0.4v-4.7c0-0.2,0.2-0.4,0.4-0.4h4.8c0.2,0,0.4,0.2,0.4,0.4v4.7
					C91,114.3,90.8,114.5,90.6,114.5z"/>
			</g>
		</g>
	</g>
	<g>
		<path class="st1" d="M151.3,88.5H69c-0.8,0-1.4-0.4-1.4-0.9s0.6-0.9,1.4-0.9h82.3c0.8,0,1.5,0.4,1.5,0.9S152.1,88.5,151.3,88.5z"
			/>
	</g>
</g>
</svg>
